<svg width="30" height="20" viewBox="0 0 30 20" fill="none" xmlns="http://www.w3.org/2000/svg">
<path d="M28.4436 7.3848C29.1543 8.0955 29.5444 9.03715 29.5444 10.0389C29.5444 11.0406 29.1543 11.9822 28.446 12.6905L22.1758 18.9253C21.6863 19.4119 20.8948 19.4097 20.4079 18.9202C19.9211 18.4307 19.9236 17.6392 20.4131 17.1526L26.6809 10.9202C26.9143 10.6866 27.0444 10.3728 27.0444 10.0389C27.0444 9.70512 26.9143 9.39115 26.6782 9.15507L20.4131 2.92532C19.9236 2.4385 19.9211 1.647 20.4079 1.15749C20.6523 0.911889 20.9734 0.788842 21.2944 0.788842C21.6133 0.788842 21.9319 0.909935 22.1758 1.15237L28.4436 7.3848Z" fill="#CCCCCC"/>
<path d="M1.6694 11.2888L22.1069 11.2888C22.7974 11.2888 23.3569 10.7292 23.3569 10.0388C23.3569 9.34839 22.7974 8.78881 22.1069 8.78881L1.6694 8.78881C0.978965 8.78881 0.419394 9.34839 0.419394 10.0388C0.419394 10.7292 0.978965 11.2888 1.6694 11.2888Z" fill="#CCCCCC"/>
</svg>
