<svg width="30" height="20" viewBox="0 0 30 20" fill="none" xmlns="http://www.w3.org/2000/svg">
<path d="M1.87305 12.6928C1.16235 11.9821 0.772217 11.0405 0.772217 10.0388C0.772217 9.03707 1.16235 8.09542 1.87061 7.38716L8.14088 1.15229C8.63038 0.665715 9.42189 0.667913 9.90871 1.15742C10.3955 1.64692 10.3931 2.43842 9.90358 2.925L3.63575 9.15743C3.40235 9.39107 3.27222 9.70479 3.27222 10.0388C3.27222 10.3725 3.40235 10.6865 3.63843 10.9226L9.90358 17.1523C10.3931 17.6391 10.3955 18.4306 9.90871 18.9201C9.66432 19.1657 9.34328 19.2888 9.02223 19.2888C8.70338 19.2888 8.38478 19.1677 8.14088 18.9253L1.87305 12.6928Z" fill="#CCCCCC"/>
<path d="M28.6473 8.78882H8.20972C7.51929 8.78882 6.95972 9.34839 6.95972 10.0388C6.95972 10.7293 7.51929 11.2888 8.20972 11.2888H28.6473C29.3377 11.2888 29.8973 10.7293 29.8973 10.0388C29.8973 9.34839 29.3377 8.78882 28.6473 8.78882Z" fill="#CCCCCC"/>
</svg>
