<svg width="30" height="37" viewBox="0 0 30 37" xmlns="http://www.w3.org/2000/svg">
<path clip-rule="evenodd" d="M29.3326 23.9922C29.3326 24.7904 28.6855 25.4375 27.8872 25.4375C27.089 25.4375 26.4419 24.7904 26.4419 23.9922V5.78125C26.4419 4.18736 25.1452 2.89062 23.5513 2.89062H5.78198C4.18809 2.89062 2.89136 4.18736 2.89136 5.78125V31.2187C2.89136 32.8126 4.18809 34.1094 5.78198 34.1094H23.5513C25.1452 34.1094 26.4419 32.8126 26.4419 31.2187C26.4419 30.4205 27.089 29.7734 27.8872 29.7734C28.6855 29.7734 29.3326 30.4205 29.3326 31.2187C29.3325 34.4065 26.7391 37 23.5512 37H5.78198C2.5942 37 0.000732422 34.4065 0.000732422 31.2187V5.78125C0.000732422 2.59347 2.5942 0 5.78198 0H23.5513C26.7391 0 29.3326 2.59347 29.3326 5.78125V23.9922ZM22.114 18.2109H17.8503C17.0521 18.2109 16.405 18.858 16.405 19.6562C16.405 20.4545 17.0521 21.1016 17.8503 21.1016H22.114C22.9123 21.1016 23.5593 20.4545 23.5593 19.6562C23.5593 18.858 22.9123 18.2109 22.114 18.2109ZM22.114 26.9551H17.8503C17.0521 26.9551 16.405 27.6021 16.405 28.4004C16.405 29.1986 17.0521 29.8457 17.8503 29.8457H22.114C22.9123 29.8457 23.5593 29.1986 23.5593 28.4004C23.5593 27.6021 22.9123 26.9551 22.114 26.9551ZM14.651 5.75102C14.0358 5.2427 13.1247 5.32928 12.6163 5.94469L9.49409 9.72368L8.2621 8.45853C7.7053 7.88669 6.7902 7.87447 6.21829 8.43135C5.64645 8.98823 5.63424 9.90326 6.19112 10.4752L7.7415 12.0674C7.75429 12.0806 7.7673 12.0934 7.7806 12.1061C8.2491 12.552 8.87441 12.8 9.51765 12.8C9.57286 12.7999 9.62843 12.7981 9.68393 12.7943C10.3809 12.7479 11.0318 12.4105 11.4717 11.8683L14.8447 7.7858C15.3532 7.17039 15.2664 6.25941 14.651 5.75102ZM12.6163 23.5686C13.1247 22.9532 14.0358 22.8666 14.651 23.3749C15.2664 23.8833 15.3532 24.7943 14.8447 25.4097L11.4717 29.4922C11.0317 30.0345 10.3808 30.3718 9.68392 30.4183C9.62842 30.4219 9.57292 30.4238 9.51763 30.4239C8.8744 30.4239 8.24901 30.1758 7.78051 29.7299C7.76823 29.7182 7.75616 29.7062 7.74431 29.6942L6.19392 28.1109C5.63553 27.5406 5.64506 26.6255 6.21538 26.067C6.78571 25.5085 7.70073 25.5181 8.25927 26.0884L9.49321 27.3486L12.6163 23.5686ZM22.114 9.32227H17.8503C17.0521 9.32227 16.405 9.96933 16.405 10.7676C16.405 11.5658 17.0521 12.2129 17.8503 12.2129H22.114C22.9123 12.2129 23.5593 11.5658 23.5593 10.7676C23.5593 9.96933 22.9123 9.32227 22.114 9.32227ZM12.6163 14.8243C13.1247 14.209 14.0358 14.1223 14.651 14.6307C15.2664 15.1391 15.3532 16.05 14.8447 16.6654L11.4717 20.748C11.0317 21.2902 10.3808 21.6276 9.68392 21.674C9.62842 21.6777 9.57292 21.6795 9.51764 21.6797C8.8744 21.6797 8.24901 21.4316 7.78051 20.9856C7.76823 20.9739 7.75616 20.962 7.74431 20.9499L6.19392 19.3667C5.63553 18.7963 5.64506 17.8812 6.21538 17.3228C6.78571 16.7643 7.70073 16.7738 8.25927 17.3442L9.49321 18.6043L12.6163 14.8243Z" fill="#000"/>
</svg>
