<svg width="38" height="38" viewBox="0 0 30 32" fill="none" xmlns="http://www.w3.org/2000/svg">
<path fill-rule="evenodd" clip-rule="evenodd" d="M24.1484 21.45C24.8215 21.45 25.3672 20.9044 25.3672 20.2313V4.875C25.3672 2.18693 23.1802 0 20.4922 0H5.5083C2.82023 0 0.633301 2.18693 0.633301 4.875V26.325C0.633301 29.0131 2.82023 31.2 5.5083 31.2H20.4921C23.1802 31.2 25.3671 29.0131 25.3672 26.325C25.3672 25.6519 24.8215 25.1063 24.1484 25.1063C23.4753 25.1063 22.9297 25.6519 22.9297 26.325C22.9297 27.669 21.8362 28.7625 20.4922 28.7625H5.5083C4.16426 28.7625 3.0708 27.669 3.0708 26.325V4.875C3.0708 3.53096 4.16426 2.4375 5.5083 2.4375H20.4922C21.8362 2.4375 22.9297 3.53096 22.9297 4.875V20.2313C22.9297 20.9044 23.4753 21.45 24.1484 21.45ZM6.71924 17.3562H19.2804C19.9535 17.3562 20.4991 17.9018 20.4991 18.575C20.4991 19.2481 19.9535 19.7937 19.2804 19.7937H6.71924C6.04612 19.7937 5.50049 19.2481 5.50049 18.575C5.50049 17.9018 6.04612 17.3562 6.71924 17.3562ZM6.71899 23H19.2801C19.9532 23 20.4989 23.5456 20.4989 24.2188C20.4989 24.8919 19.9532 25.4375 19.2801 25.4375H6.71899C6.04588 25.4375 5.50024 24.8919 5.50024 24.2188C5.50024 23.5456 6.04588 23 6.71899 23ZM11 9C11.8284 9 12.5 8.32837 12.5 7.5C12.5 6.67163 11.8284 6 11 6C10.1716 6 9.5 6.67163 9.5 7.5C9.5 8.32837 10.1716 9 11 9ZM10.4646 13.4584L14.4255 6.59784C14.678 6.16058 15.2371 6.0108 15.6741 6.26331C16.1114 6.51562 16.2612 7.07465 16.0089 7.5119L12.0477 14.3725C11.7954 14.8098 11.2364 14.9595 10.7991 14.707C10.3619 14.4545 10.2121 13.8957 10.4646 13.4584ZM17 13.5C17 14.3284 16.3284 15 15.5 15C14.6716 15 14 14.3284 14 13.5C14 12.6716 14.6716 12 15.5 12C16.3284 12 17 12.6716 17 13.5Z" fill="#000"/>
</svg>
