<svg width="38" height="38" viewBox="0 0 32 32" fill="none" xmlns="http://www.w3.org/2000/svg">
<path fill-rule="evenodd" clip-rule="evenodd" d="M8.62552 31.1392C9.29738 31.1392 9.84189 30.5947 9.84189 29.9228C9.84189 29.2512 9.29738 28.7064 8.62552 28.7067C7.28418 28.7067 6.19277 27.6153 6.19277 26.2739V12.1645C6.19277 12.0958 6.18588 12.0288 6.17472 11.9632L15.4337 2.7226C15.8891 2.33583 16.5571 2.33701 17.0111 2.72568L26.3411 12.1388C26.8139 12.6159 27.5841 12.6194 28.0614 12.1464C28.5384 11.6734 28.5417 10.9034 28.069 10.4261L18.7098 0.983561C18.6932 0.966931 18.6761 0.950538 18.6585 0.934858C17.2748 -0.307649 15.1835 -0.312163 13.7944 0.924643C13.7771 0.940085 13.7602 0.955765 13.7438 0.972157L0.954759 13.736C0.479375 14.2107 0.478425 14.9809 0.953096 15.4563C1.19067 15.6943 1.50236 15.8133 1.81406 15.8133C2.12481 15.8133 2.43579 15.695 2.67313 15.4579L3.76026 14.3732V26.2739C3.76026 28.9566 5.94284 31.1392 8.62552 31.1392ZM31.7359 27.4901V18.0636C31.7359 15.9832 29.2521 14.4145 25.9584 14.4145C22.6644 14.4145 20.1806 15.9832 20.1806 18.0636C20.1806 18.0998 20.1816 18.1356 20.183 18.1715C20.1816 18.1962 20.1806 18.2209 20.1806 18.2461V19.6998C19.2137 19.2705 18.047 19.0367 16.8358 19.0367C13.5421 19.0367 11.0583 20.6054 11.0583 22.6856L11.0585 22.7057L11.059 22.7301L11.0588 22.7352C11.0588 22.7362 11.0587 22.7372 11.0586 22.7382C11.0584 22.741 11.0583 22.7437 11.0583 22.7464V27.4901C11.0583 29.5705 13.5421 31.1392 16.8358 31.1392C18.7305 31.1392 20.3569 30.6201 21.397 29.7831C22.4371 30.6201 24.0635 31.1392 25.9584 31.1392C29.2521 31.1392 31.7359 29.5705 31.7359 27.4901ZM20.1806 27.4901V22.7464C20.1806 22.4181 19.0305 21.4693 16.8358 21.4693C14.6409 21.4693 13.4908 22.373 13.4908 22.6856C13.4908 22.9983 14.6409 23.902 16.8358 23.902C17.5077 23.902 18.0522 24.4465 18.0522 25.1184C18.0522 25.79 17.5077 26.3348 16.8358 26.3348C15.5693 26.3348 14.4228 26.1024 13.4908 25.6988V27.4901C13.4908 27.8027 14.6409 28.7064 16.8358 28.7064C19.0305 28.7064 20.1806 27.803 20.1806 27.4901ZM25.9584 16.8473C28.1531 16.8473 29.3032 17.751 29.3032 18.0636V27.4901C29.3032 27.8027 28.1531 28.7064 25.9584 28.7064C23.7634 28.7064 22.6133 27.8027 22.6133 27.4901V25.6988C23.5451 26.1024 24.6916 26.3347 25.9584 26.3347C26.63 26.3347 27.1745 25.79 27.1745 25.1184C27.1745 24.4465 26.63 23.902 25.9584 23.902C23.7634 23.902 22.6133 22.9983 22.6133 22.6856V21.077C23.5451 21.4807 24.6919 21.7125 25.9584 21.7125C26.63 21.7125 27.1745 21.168 27.1745 20.4962C27.1745 19.8245 26.63 19.28 25.9584 19.28C23.7634 19.28 22.6133 18.3761 22.6133 18.0636C22.6133 17.751 23.7634 16.8473 25.9584 16.8473Z" fill="#4C9EE0"/>
</svg>
