<svg width="38" height="38" viewBox="0 0 38 38" fill="none" xmlns="http://www.w3.org/2000/svg">
<path id="Shape" fill-rule="evenodd" clip-rule="evenodd" d="M23.3804 28.6282C23.3804 27.8299 24.0274 27.1829 24.8257 27.1829C25.624 27.1829 26.271 27.8299 26.271 28.6282C26.271 33.3302 22.4457 37.1555 17.7437 37.1555C13.0416 37.1555 9.21631 33.3302 9.21631 28.6282V24.5638L4.01657 17.0185C3.96152 16.9389 3.91608 16.8556 3.8791 16.7698C3.8201 16.7128 3.76166 16.6549 3.7038 16.5962C1.85284 14.7145 0.833496 12.0839 0.833496 9.18872C0.833496 9.14384 0.836319 9.09923 0.840271 9.0552C0.836319 9.01116 0.833496 8.96684 0.833496 8.92167V3.51587C0.833496 1.66293 2.34091 0.155518 4.19385 0.155518H6.83154C7.62985 0.155518 8.27685 0.802521 8.27685 1.60083V2.97388C8.27685 3.77219 7.62985 4.41919 6.83154 4.41919C6.05751 4.41919 5.42575 3.81086 5.38792 3.04614H4.19385C3.93471 3.04614 3.72412 3.25673 3.72412 3.51587V8.92167C3.72412 8.96684 3.72158 9.01116 3.71735 9.0552C3.7213 9.09923 3.72412 9.14384 3.72412 9.18872C3.72412 13.4597 6.64184 16.5598 10.6616 16.5598C14.6599 16.5598 17.5678 13.4933 17.5988 9.2576C17.5977 9.23473 17.5971 9.21158 17.5971 9.18815L17.5991 3.5153C17.5991 3.25673 17.3885 3.04614 17.1294 3.04614H15.8647C15.8647 3.84445 15.2177 4.49145 14.4194 4.49145C13.6211 4.49145 12.9741 3.84445 12.9741 3.04614V1.60083C12.9741 0.802521 13.6211 0.155518 14.4194 0.155518H17.1294C18.9823 0.155518 20.4897 1.66293 20.4897 3.51587L20.4878 9.11448C20.4892 9.13904 20.4897 9.16388 20.4897 9.18872C20.4897 12.0839 19.4704 14.7145 17.6194 16.5962C17.5252 16.6922 17.4286 16.7854 17.3307 16.8768C17.305 16.9251 17.2767 16.9725 17.2451 17.0185L12.1069 24.4743V28.6282C12.1069 31.7362 14.6354 34.2649 17.7437 34.2649C20.8519 34.2649 23.3804 31.7362 23.3804 28.6282ZM12.1301 19.3463C11.6496 19.4152 11.159 19.4504 10.6613 19.4504C10.14 19.4504 9.62619 19.4115 9.12372 19.3358L10.6306 21.5221L12.1301 19.3463ZM34.9426 15.6523V5.93677C34.9426 2.74889 32.3492 0.155518 29.1613 0.155518C25.9735 0.155518 23.3801 2.74889 23.3801 5.93677V21.4016C23.3801 22.1999 24.0271 22.8469 24.8254 22.8469C25.6237 22.8469 26.2707 22.1999 26.2707 21.4016V5.93677C26.2707 4.34297 27.5675 3.04614 29.1613 3.04614C30.7551 3.04614 32.052 4.34297 32.052 5.93677V15.6523C30.3698 16.2487 29.1613 17.8552 29.1613 19.7395C29.1613 22.1305 31.1063 24.0754 33.4973 24.0754C35.8882 24.0754 37.8332 22.1305 37.8332 19.7395C37.8332 17.8552 36.6247 16.2487 34.9426 15.6523ZM32.0522 19.7395C32.0522 20.5364 32.7007 21.1848 33.4976 21.1848C34.2945 21.1848 34.9429 20.5364 34.9429 19.7395C34.9429 18.9426 34.2945 18.2942 33.4976 18.2942C32.7007 18.2942 32.0522 18.9426 32.0522 19.7395Z" fill="#4C9EE0"/>
</svg>
