<svg width="24" height="24" viewBox="0 0 24 24" fill="none" xmlns="http://www.w3.org/2000/svg">
<path d="M6.95588 22.4421C6.95588 22.946 6.5475 23.3544 6.0436 23.3544C4.0316 23.3544 2.39466 21.7175 2.39466 19.7054V10.7799L1.57931 11.5935C1.40131 11.7713 1.16807 11.86 0.935009 11.86C0.701237 11.86 0.467465 11.7707 0.289285 11.5922C-0.0667185 11.2357 -0.0660057 10.658 0.290532 10.302L9.88231 0.729118C9.8946 0.716824 9.90725 0.705064 9.92026 0.693482C10.9621 -0.234122 12.5306 -0.230737 13.5683 0.701144C13.5815 0.712904 13.5943 0.725198 13.6068 0.737671L20.6262 7.81961C20.9808 8.17757 20.9783 8.75505 20.6205 9.10981C20.2625 9.46456 19.6849 9.46189 19.3303 9.1041L12.3328 2.04426C11.9923 1.75276 11.4913 1.75187 11.1497 2.04195L4.2055 8.97243C4.21387 9.02161 4.21904 9.07185 4.21904 9.12335V19.7054C4.21904 20.7115 5.0376 21.53 6.0436 21.53C6.5475 21.5298 6.95588 21.9384 6.95588 22.4421Z" fill="#4C9EE0"/>
<path d="M16.9345 22.4421C16.9345 22.946 17.3429 23.3544 17.8468 23.3544C19.8588 23.3544 21.4957 21.7175 21.4957 19.7054V10.7799L22.3111 11.5935C22.4891 11.7713 22.7223 11.86 22.9554 11.86C23.1891 11.86 23.4229 11.7707 23.6011 11.5922C23.9571 11.2357 23.9564 10.658 23.5998 10.302L14.0081 0.729118C13.9958 0.716824 13.9831 0.705064 13.9701 0.693482C12.9283 -0.234122 11.3598 -0.230737 10.3221 0.701144C10.3089 0.712904 10.2961 0.725198 10.2836 0.737671L3.26418 7.81961C2.90961 8.17757 2.9121 8.75505 3.26989 9.10981C3.62785 9.46456 4.20551 9.46189 4.56009 9.1041L11.5576 2.04426C11.8981 1.75276 12.3991 1.75187 12.7407 2.04195L19.6849 8.97243C19.6765 9.02161 19.6713 9.07185 19.6713 9.12335V19.7054C19.6713 20.7115 18.8528 21.53 17.8468 21.53C17.3429 21.5298 16.9345 21.9384 16.9345 22.4421Z" fill="#4C9EE0"/>
<path d="M7.1499 18.9999H6.2999C6.2999 19.4693 6.68046 19.8499 7.1499 19.8499V18.9999ZM8.8499 18.9999V19.8499C9.31934 19.8499 9.6999 19.4693 9.6999 18.9999H8.8499ZM15.1499 18.9999H14.2999C14.2999 19.4693 14.6805 19.8499 15.1499 19.8499V18.9999ZM16.8499 18.9999V19.8499C17.3193 19.8499 17.6999 19.4693 17.6999 18.9999H16.8499ZM7.9999 15.9999C7.9999 14.8953 8.89533 13.9999 9.9999 13.9999V12.2999C7.95645 12.2999 6.2999 13.9564 6.2999 15.9999H7.9999ZM7.9999 18.9999V15.9999H6.2999V18.9999H7.9999ZM7.1499 19.8499H8.8499V18.1499H7.1499V19.8499ZM7.9999 15.9999V18.9999H9.6999V15.9999H7.9999ZM9.9999 13.9999C8.89533 13.9999 7.9999 14.8953 7.9999 15.9999H9.6999C9.6999 15.8342 9.83422 15.6999 9.9999 15.6999V13.9999ZM13.9999 13.9999H9.9999V15.6999H13.9999V13.9999ZM15.9999 15.9999C15.9999 14.8953 15.1045 13.9999 13.9999 13.9999V15.6999C14.1656 15.6999 14.2999 15.8342 14.2999 15.9999H15.9999ZM15.9999 18.9999V15.9999H14.2999V18.9999H15.9999ZM15.1499 19.8499H16.8499V18.1499H15.1499V19.8499ZM15.9999 15.9999V18.9999H17.6999V15.9999H15.9999ZM13.9999 13.9999C15.1045 13.9999 15.9999 14.8953 15.9999 15.9999H17.6999C17.6999 13.9564 16.0434 12.2999 13.9999 12.2999V13.9999ZM9.9999 13.9999H13.9999V12.2999H9.9999V13.9999Z" fill="#4C9EE0"/>
</svg>
