<svg width="186" height="60" viewBox="0 0 186 60" fill="none" xmlns="http://www.w3.org/2000/svg">
<path d="M68 21.3789C68.326 21.3115 68.6906 21.2695 69.0896 21.2527C69.4843 21.236 69.8103 21.2274 70.0592 21.2274C70.3337 21.2274 70.6597 21.236 71.0373 21.2527C71.4148 21.2695 71.7752 21.3115 72.1184 21.3789V38.6209C71.7752 38.6799 71.4148 38.722 71.0373 38.743C70.6597 38.764 70.3337 38.7724 70.0592 38.7724C69.8103 38.7724 69.4843 38.764 69.0896 38.743C68.6908 38.722 68.3262 38.6799 68 38.6209V21.3789V21.3789ZM78.1927 25.8473C78.9649 25.8473 79.5484 26.1039 79.9387 26.6214C80.3289 27.139 80.5221 27.8373 80.5221 28.7125V38.6209C80.239 38.6713 79.9216 38.7093 79.5655 38.7344C79.2052 38.7597 78.8576 38.7724 78.5145 38.7724C78.18 38.7724 77.8368 38.7597 77.4807 38.7344C77.1204 38.7093 76.7942 38.6713 76.494 38.6209V26.0239L76.6741 25.8473H78.1927ZM87.5616 35.4654C87.5616 35.9535 87.6089 36.412 87.7032 36.8454C87.7975 37.2788 87.9648 37.6575 88.205 37.9772C87.9134 38.2128 87.5487 38.4147 87.1112 38.5748C86.6737 38.7389 86.2018 38.823 85.6956 38.823C84.889 38.823 84.327 38.6125 84.0096 38.1918C83.6922 37.771 83.5334 37.1651 83.5334 36.3742V31.0098C83.5334 30.4376 83.4561 30.0168 83.3102 29.7392C83.1558 29.4656 82.8683 29.3311 82.4394 29.3311C82.1735 29.3311 81.8647 29.3985 81.5214 29.5373C81.1738 29.6761 80.8264 29.9076 80.479 30.2273C80.1314 30.547 79.8227 30.9719 79.5567 31.5022V28.0437C80.166 27.4715 80.8264 26.954 81.5343 26.4914C82.2379 26.0286 83.0486 25.7971 83.9582 25.7971C84.7475 25.7971 85.4081 25.9865 85.94 26.3693C86.472 26.7521 86.8752 27.2823 87.1497 27.9555C87.4242 28.6288 87.5616 29.407 87.5616 30.2906V35.4656V35.4654ZM98.3332 26.0366C98.5734 25.9861 98.818 25.9482 99.0626 25.9271C99.3071 25.9061 99.5473 25.8977 99.7875 25.8977C100.139 25.8977 100.5 25.9188 100.864 25.9608C101.229 26.0029 101.563 26.0829 101.872 26.2007L101.988 26.3773C101.731 27.2945 101.448 28.3042 101.134 29.4109C100.821 30.5217 100.5 31.6451 100.173 32.781C99.8475 33.9212 99.5342 35.0026 99.2341 36.0123C98.9337 37.0263 98.6679 37.8972 98.436 38.6209C97.99 38.6713 97.5008 38.7093 96.9776 38.7344C96.4499 38.7597 95.9308 38.7724 95.4248 38.7724C94.6611 38.7724 94.0606 38.6503 93.6316 38.4064C93.1941 38.1622 92.8637 37.6573 92.6321 36.8918L89.5563 26.3269C89.9081 26.1839 90.2854 26.0576 90.6845 25.9524C91.0835 25.8473 91.4438 25.7967 91.7697 25.7967C92.4046 25.7967 92.9108 25.9314 93.2882 26.2048C93.6657 26.4781 93.9359 26.9579 94.0989 27.6393L95.2572 32.3476C95.343 32.6673 95.4202 33.0166 95.4889 33.3994C95.5576 33.7822 95.6219 34.1525 95.6777 34.5059C95.7335 34.8593 95.7807 35.1622 95.8236 35.4148C95.8407 35.5158 95.8708 35.5746 95.9094 35.5915C95.9479 35.6083 96.0036 35.6167 96.0809 35.6167L98.333 26.0364L98.3332 26.0366ZM105.939 33.5972V30.8835H110.791V30.5932C110.791 30.2061 110.735 29.8484 110.624 29.5244C110.512 29.2007 110.332 28.9396 110.092 28.7419C109.843 28.5441 109.517 28.4473 109.105 28.4473C108.479 28.4473 108.041 28.6999 107.788 29.2047C107.535 29.7096 107.406 30.488 107.406 31.54V32.7265C107.406 33.2987 107.458 33.833 107.561 34.3295C107.664 34.826 107.882 35.2257 108.217 35.5287C108.552 35.8316 109.062 35.9831 109.748 35.9831C110.332 35.9831 110.902 35.9074 111.469 35.7602C112.031 35.613 112.567 35.4362 113.082 35.2259C113.382 35.5119 113.622 35.8739 113.802 36.3114C113.982 36.7489 114.102 37.1655 114.163 37.561C113.51 38.0238 112.734 38.3814 111.829 38.6297C110.919 38.8736 110.01 39 109.092 39C107.959 39 107.024 38.8148 106.287 38.4488C105.549 38.087 104.965 37.5863 104.536 36.9595C104.107 36.3326 103.807 35.6258 103.631 34.839C103.455 34.0522 103.365 33.2444 103.365 32.4113C103.365 31.1407 103.562 29.9921 103.953 28.9695C104.339 27.9472 104.961 27.1393 105.81 26.542C106.66 25.9445 107.767 25.6458 109.131 25.6458C110.263 25.6458 111.229 25.8814 112.026 26.3526C112.824 26.8237 113.438 27.459 113.862 28.2626C114.287 29.0663 114.497 29.9793 114.497 30.9976C114.497 31.5612 114.472 32.0326 114.416 32.4027C114.36 32.7771 114.27 33.1769 114.15 33.5976H105.939V33.5972ZM116.724 37.75C116.741 37.3293 116.861 36.8581 117.08 36.3363C117.295 35.8145 117.552 35.4021 117.844 35.0991C118.41 35.3852 118.998 35.6293 119.602 35.8355C120.203 36.0417 120.808 36.1468 121.409 36.1468C121.906 36.1468 122.284 36.0627 122.537 35.8943C122.786 35.7261 122.914 35.5156 122.914 35.2631C122.914 35.0191 122.824 34.8046 122.644 34.611C122.464 34.4259 122.164 34.2576 121.743 34.1145L120.315 33.6097C119.714 33.3908 119.169 33.1132 118.68 32.7808C118.191 32.4485 117.805 32.0404 117.522 31.5565C117.239 31.0768 117.097 30.4962 117.097 29.8231C117.097 28.9649 117.303 28.2242 117.715 27.6016C118.127 26.9789 118.706 26.4949 119.453 26.1541C120.199 25.8175 121.074 25.645 122.078 25.645C122.893 25.645 123.747 25.7544 124.639 25.9731C125.531 26.1919 126.256 26.4359 126.814 26.7052C126.831 27.0081 126.792 27.3448 126.698 27.7149C126.604 28.0852 126.471 28.4259 126.295 28.7373C126.119 29.0486 125.922 29.2844 125.707 29.444C125.175 29.2084 124.596 28.9896 123.97 28.792C123.343 28.5942 122.726 28.4974 122.117 28.4974C121.773 28.4974 121.512 28.5774 121.332 28.7373C121.151 28.8971 121.061 29.0864 121.061 29.3052C121.061 29.5241 121.139 29.7092 121.293 29.8605C121.447 30.012 121.696 30.1465 122.039 30.2645L123.635 30.8198C124.613 31.1564 125.428 31.6486 126.081 32.2966C126.733 32.9446 127.059 33.8071 127.059 34.8842C127.059 36.1379 126.57 37.1394 125.587 37.8799C124.6 38.6246 123.241 38.999 121.499 38.999C120.581 38.999 119.706 38.8727 118.882 38.6287C118.054 38.3805 117.334 38.0859 116.725 37.7492L116.724 37.75ZM130.546 24.5975C130.546 23.7223 130.713 23.1082 131.043 22.7547C131.374 22.4013 131.932 22.2245 132.721 22.2245H134.291L134.471 22.4013V34.5565C134.471 34.9352 134.561 35.2298 134.737 35.4317C134.913 35.6379 135.205 35.743 135.616 35.743H137.058C137.272 36.3573 137.38 36.98 137.38 37.6112C137.38 37.7541 137.375 37.9056 137.363 38.0656C137.35 38.2255 137.32 38.3686 137.277 38.4947C136.805 38.5537 136.26 38.6125 135.642 38.6673C135.025 38.7177 134.458 38.7473 133.944 38.7473C132.777 38.7473 131.919 38.4611 131.37 37.8931C130.821 37.3252 130.546 36.4416 130.546 35.2384V24.5977L130.546 24.5975ZM137.521 25.9986C137.641 26.4445 137.701 26.9032 137.701 27.3743C137.701 27.8878 137.641 28.363 137.521 28.8005L132.721 28.7248L128.525 28.8005C128.414 28.3547 128.358 27.8792 128.358 27.3743C128.358 26.9199 128.414 26.4614 128.525 25.9986L132.837 26.0617L137.521 25.9986H137.521ZM139.349 37.1188C139.4 36.5466 139.58 35.9829 139.889 35.4315C140.198 34.8846 140.55 34.4385 140.944 34.1019C141.665 34.5226 142.484 34.9056 143.402 35.2423C144.32 35.583 145.238 35.7555 146.157 35.7555C146.903 35.7555 147.439 35.5789 147.765 35.2253C148.091 34.8719 148.254 34.4932 148.254 34.0892C148.254 33.82 148.164 33.5086 147.984 33.1593C147.804 32.8102 147.353 32.4903 146.633 32.1959L143.531 30.9337C142.467 30.4962 141.588 29.9111 140.893 29.1792C140.198 28.4472 139.85 27.4795 139.85 26.276C139.85 25.2243 140.129 24.3029 140.687 23.5118C141.244 22.7208 141.999 22.1065 142.947 21.6606C143.895 21.2188 144.951 21 146.117 21C147.336 21 148.481 21.1558 149.549 21.4671C150.618 21.7784 151.484 22.1067 152.153 22.4517C152.119 23.0323 151.982 23.5919 151.737 24.122C151.493 24.6606 151.167 25.1067 150.763 25.4684C150.111 25.1655 149.348 24.8878 148.473 24.6269C147.598 24.3744 146.812 24.2441 146.117 24.2441C145.38 24.2441 144.856 24.4083 144.543 24.7363C144.23 25.0644 144.071 25.397 144.071 25.7336C144.071 26.0533 144.183 26.3395 144.401 26.5918C144.62 26.8444 145.011 27.0883 145.577 27.3239L148.743 28.5988C149.575 28.9355 150.283 29.3521 150.862 29.8527C151.441 30.3576 151.879 30.9214 152.179 31.5441C152.479 32.171 152.629 32.8527 152.629 33.5848C152.629 34.603 152.376 35.5244 151.879 36.3406C151.377 37.161 150.622 37.8133 149.618 38.2845C148.614 38.7599 147.362 38.9998 145.86 38.9998C144.822 38.9998 143.715 38.8357 142.54 38.5117C141.364 38.192 140.3 37.7249 139.348 37.119L139.349 37.1188ZM169.772 32.2592C169.772 33.6813 169.502 34.8972 168.961 35.8986C168.421 36.9042 167.631 37.6741 166.602 38.2043C165.568 38.7344 164.302 38.9994 162.81 38.9994C161.325 38.9994 160.064 38.7342 159.026 38.2043C157.988 37.6741 157.199 36.904 156.658 35.8986C156.118 34.8972 155.847 33.6811 155.847 32.2592V21.3787L156.028 21.2146H157.533C158.323 21.2146 158.928 21.4165 159.348 21.8121C159.768 22.2161 159.979 22.8639 159.979 23.7644V32.297C159.979 33.4498 160.193 34.3207 160.622 34.9013C161.051 35.4862 161.78 35.7808 162.81 35.7808C163.848 35.7808 164.582 35.4862 165.011 34.9013C165.44 34.3207 165.654 33.4498 165.654 32.297V21.3787C165.997 21.3113 166.353 21.2693 166.718 21.2525C167.083 21.2358 167.396 21.2272 167.662 21.2272C167.911 21.2272 168.241 21.2358 168.661 21.2525C169.073 21.2693 169.446 21.3113 169.772 21.3787V32.2592H169.772ZM172.719 37.1188C172.771 36.5466 172.951 35.9829 173.26 35.4315C173.569 34.8846 173.92 34.4385 174.315 34.1019C175.036 34.5226 175.855 34.9056 176.773 35.2423C177.691 35.583 178.609 35.7555 179.527 35.7555C180.274 35.7555 180.81 35.5789 181.136 35.2253C181.462 34.8719 181.625 34.4932 181.625 34.0892C181.625 33.82 181.535 33.5086 181.355 33.1593C181.175 32.8102 180.724 32.4903 180.003 32.1959L176.902 30.9337C175.838 30.4962 174.958 29.9111 174.263 29.1792C173.568 28.4472 173.221 27.4795 173.221 26.276C173.221 25.2243 173.5 24.3029 174.057 23.5118C174.615 22.7208 175.37 22.1065 176.318 21.6606C177.266 21.2188 178.321 21 179.488 21C180.706 21 181.852 21.1558 182.92 21.4671C183.988 21.7784 184.855 22.1067 185.524 22.4517C185.49 23.0323 185.352 23.5919 185.108 24.122C184.863 24.6606 184.537 25.1067 184.134 25.4684C183.482 25.1655 182.718 24.8878 181.843 24.6269C180.968 24.3744 180.183 24.2441 179.488 24.2441C178.75 24.2441 178.227 24.4083 177.914 24.7363C177.6 25.0644 177.442 25.397 177.442 25.7336C177.442 26.0533 177.553 26.3395 177.772 26.5918C177.991 26.8444 178.381 27.0883 178.948 27.3239L182.113 28.5988C182.946 28.9355 183.654 29.3521 184.233 29.8527C184.812 30.3576 185.249 30.9214 185.55 31.5441C185.85 32.171 186 32.8527 186 33.5848C186 34.603 185.747 35.5244 185.249 36.3406C184.747 37.161 183.992 37.8133 182.989 38.2845C181.985 38.7599 180.732 38.9998 179.231 38.9998C178.193 38.9998 177.086 38.8357 175.91 38.5117C174.735 38.192 173.671 37.7249 172.719 37.119L172.719 37.1188Z" fill="#173F5F"/>
<path d="M27.024 6.33299C33.899 5.54714 41.1783 5.8017 47.5521 8.74924C52.7139 11.1207 56.6339 15.819 58.2721 21.2353C60.4641 28.365 60.5387 36.1151 58.6763 43.3343C57.2028 48.9679 53.5443 54.1818 48.1804 56.7032C39.7269 60.8176 29.6049 60.8997 20.7694 57.9526C14.8071 55.9773 9.9518 51.1743 7.99183 45.1971C5.12645 36.4292 5.35844 26.524 9.1292 18.0706C12.2262 11.0682 19.7374 7.26828 27.0235 6.33299H27.024Z" fill="url(#paint0_linear_615_37)"/>
<path d="M58.4889 44.0084C56.9073 49.3809 53.3304 54.2832 48.1804 56.7035C39.7269 60.8179 29.6049 60.9 20.7698 57.9529C14.8075 55.9776 9.9522 51.1747 7.99222 45.1975C7.88484 44.8682 7.78237 44.5377 7.68359 44.2055C12.5938 40.654 18.6545 38.5416 24.6098 37.7775C34.372 36.6619 44.7076 37.0233 53.7575 41.2083C55.4326 41.9781 57.0155 42.9208 58.4889 44.0084Z" fill="url(#paint1_linear_615_37)"/>
<path fill-rule="evenodd" clip-rule="evenodd" d="M33.0232 46.6678C25.4743 46.6678 19.355 40.5378 19.355 32.9758H22.72C22.72 38.6758 27.333 43.2969 33.0232 43.2969V46.6678Z" fill="#99D1FF"/>
<path fill-rule="evenodd" clip-rule="evenodd" d="M22.72 32.9758H19.355V32.9717C19.357 25.4117 25.4755 19.2838 33.0232 19.2838V22.6546C27.3408 22.6546 22.7335 27.2626 22.7204 32.9515L22.72 32.9758Z" fill="#D9F0FF"/>
<path fill-rule="evenodd" clip-rule="evenodd" d="M33.0232 19.2834C33.0515 19.2834 33.0798 19.2842 33.108 19.2846C40.6176 19.3306 46.6914 25.4421 46.6914 32.9754C46.6914 40.537 40.5729 46.6665 33.0248 46.6673H33.0232V43.2965H33.0351C38.7199 43.2899 43.3264 38.6717 43.3264 32.9754C43.3264 27.2999 38.7539 22.6957 33.0978 22.6551C33.0728 22.6551 33.0482 22.6543 33.0232 22.6543V19.2834Z" fill="white"/>
<path fill-rule="evenodd" clip-rule="evenodd" d="M32.019 28.5267H34.0278C34.3958 28.5267 34.6971 28.8285 34.6971 29.1972V31.2985H36.7952C37.1632 31.2985 37.4645 31.6003 37.4645 31.969V33.9813C37.4645 34.35 37.1632 34.6517 36.7952 34.6517H34.6971V36.7535C34.6971 37.1222 34.3958 37.424 34.0278 37.424H32.019C31.6509 37.424 31.3497 37.1222 31.3497 36.7535V34.6517H29.2516C28.8835 34.6517 28.5823 34.35 28.5823 33.9813V31.969C28.5823 31.6003 28.8835 31.2985 29.2516 31.2985H31.3497V29.1972C31.3497 28.8285 31.6509 28.5267 32.019 28.5267Z" fill="#FEFEFE"/>
<path d="M8.71447 0.158637C11.57 -0.167773 14.5936 -0.0622547 17.2413 1.16209C19.3849 2.14707 21.0133 4.09896 21.6937 6.34852C22.6044 9.31002 22.6356 12.5294 21.8617 15.5282C21.2494 17.8681 19.73 20.0339 17.502 21.0813C13.9903 22.7905 9.78586 22.8246 6.11592 21.6003C3.63951 20.7799 1.62256 18.7849 0.808565 16.3018C-0.381686 12.6599 -0.285367 8.54593 1.28073 5.03426C2.5673 2.12531 5.6872 0.546633 8.71406 0.158637H8.71447Z" fill="url(#paint2_linear_615_37)"/>
<path d="M7.68034 22.0384C8.08611 20.7245 8.56811 19.4341 9.12963 18.1761C11.5134 12.7864 16.5125 9.29402 22.0109 7.54495C22.5982 10.164 22.5327 12.9293 21.8617 15.5291C21.2494 17.8689 19.73 20.0347 17.502 21.0821C14.4804 22.5528 10.9457 22.7832 7.67993 22.0388L7.68034 22.0384Z" fill="#2771AD"/>
<path d="M9.31494 5.61317C10.5527 5.61317 11.7909 5.61317 13.0291 5.61317C13.0291 6.85723 13.0291 8.10046 13.0291 9.34492C11.7909 9.34492 10.5527 9.34492 9.31494 9.34492C9.31494 8.10087 9.31494 6.85682 9.31494 5.61317Z" fill="white"/>
<path d="M7.1897 9.5498C10.3735 9.5535 13.5574 9.55022 16.7412 9.55104C16.7412 10.8649 16.7412 12.1787 16.7412 13.4926C15.3485 13.4926 13.9562 13.493 12.5635 13.4926C11.4084 12.2658 10.2522 11.0406 9.09803 9.81422C9.0677 9.78712 9.04229 9.74565 8.99844 9.74729C8.3947 9.68776 7.78974 9.63767 7.1897 9.5498Z" fill="white"/>
<path d="M5.60352 9.55226C6.71548 9.71567 7.83155 9.85075 8.95007 9.95052C10.185 11.2636 11.4228 12.5737 12.6581 13.8863C11.7798 14.0325 10.8863 14.0185 10.0014 13.9742C8.52955 13.888 7.06182 13.7163 5.60352 13.4901V9.55226Z" fill="white"/>
<path d="M8.95776 14.1072C10.1923 14.2045 11.4407 14.2908 12.6707 14.0933C12.7621 15.1895 12.8794 16.2837 13.0216 17.3734H9.3082C9.1668 16.2882 9.04916 15.199 8.95776 14.1072Z" fill="white"/>
<defs>
<linearGradient id="paint0_linear_615_37" x1="8.4644" y1="10.9023" x2="8.4644" y2="84.9686" gradientUnits="userSpaceOnUse">
<stop stop-color="#4C9EE0"/>
<stop offset="1" stop-color="#2771AD"/>
</linearGradient>
<linearGradient id="paint1_linear_615_37" x1="9.9614" y1="39.3209" x2="9.9614" y2="70.5165" gradientUnits="userSpaceOnUse">
<stop stop-color="#4C9EE0"/>
<stop offset="1" stop-color="#2771AD"/>
</linearGradient>
<linearGradient id="paint2_linear_615_37" x1="1.0048" y1="2.05661" x2="1.0048" y2="32.8224" gradientUnits="userSpaceOnUse">
<stop stop-color="#4C9EE0"/>
<stop offset="1" stop-color="#2771AD"/>
</linearGradient>
</defs>
</svg>
