<svg width="156" height="60" viewBox="0 0 156 60" fill="none" xmlns="http://www.w3.org/2000/svg">
<path d="M68.2449 19.0582C68.4865 19.0068 68.7569 18.9747 69.0527 18.9619C69.3453 18.9491 69.5869 18.9426 69.7715 18.9426C69.975 18.9426 70.2167 18.9491 70.4966 18.9619C70.7765 18.9747 71.0436 19.0068 71.2981 19.0582V32.2133C71.0436 32.2583 70.7765 32.2904 70.4966 32.3065C70.2167 32.3225 69.975 32.3289 69.7715 32.3289C69.5869 32.3289 69.3453 32.3225 69.0527 32.3065C68.757 32.2904 68.4867 32.2583 68.2449 32.2133V19.0582V19.0582ZM75.8014 22.4674C76.3739 22.4674 76.8064 22.6632 77.0958 23.0581C77.3851 23.4529 77.5283 23.9858 77.5283 24.6535V32.2133C77.3184 32.2518 77.0831 32.2808 76.8191 32.2999C76.552 32.3193 76.2943 32.3289 76.04 32.3289C75.792 32.3289 75.5375 32.3193 75.2735 32.2999C75.0064 32.2808 74.7646 32.2518 74.542 32.2133V22.6022L74.6755 22.4674H75.8014ZM82.7471 29.8058C82.7471 30.1782 82.7822 30.528 82.8521 30.8587C82.922 31.1894 83.0461 31.4783 83.2241 31.7222C83.0079 31.902 82.7376 32.056 82.4132 32.1781C82.0888 32.3034 81.739 32.3675 81.3637 32.3675C80.7658 32.3675 80.3491 32.2069 80.1138 31.8859C79.8785 31.5649 79.7607 31.1026 79.7607 30.4992V26.4063C79.7607 25.9697 79.7035 25.6487 79.5953 25.4368C79.4808 25.2281 79.2677 25.1255 78.9497 25.1255C78.7526 25.1255 78.5236 25.1769 78.2692 25.2828C78.0115 25.3887 77.7539 25.5653 77.4964 25.8093C77.2387 26.0532 77.0098 26.3773 76.8126 26.782V24.1433C77.2643 23.7067 77.7539 23.3118 78.2787 22.9588C78.8003 22.6057 79.4014 22.4291 80.0757 22.4291C80.6608 22.4291 81.1506 22.5737 81.5449 22.8657C81.9393 23.1578 82.2382 23.5623 82.4418 24.076C82.6453 24.5896 82.7471 25.1834 82.7471 25.8575V29.8059V29.8058ZM90.7328 22.6118C90.9109 22.5734 91.0922 22.5444 91.2735 22.5283C91.4548 22.5123 91.6329 22.5059 91.811 22.5059C92.0718 22.5059 92.3389 22.522 92.6093 22.554C92.8796 22.5861 93.1276 22.6472 93.3566 22.7371L93.4424 22.8718C93.2515 23.5716 93.0416 24.342 92.8096 25.1864C92.5773 26.0339 92.3389 26.891 92.0971 27.7577C91.8554 28.6276 91.6232 29.4526 91.4007 30.223C91.178 30.9967 90.9809 31.6612 90.809 32.2133C90.4784 32.2518 90.1157 32.2808 89.7278 32.2999C89.3366 32.3193 88.9517 32.3289 88.5766 32.3289C88.0104 32.3289 87.5652 32.2358 87.2472 32.0496C86.9228 31.8633 86.6779 31.4781 86.5062 30.894L84.2259 22.8333C84.4867 22.7243 84.7665 22.6279 85.0623 22.5477C85.3581 22.4674 85.6252 22.4288 85.8669 22.4288C86.3375 22.4288 86.7128 22.5316 86.9926 22.7402C87.2725 22.9487 87.4728 23.3148 87.5936 23.8347L88.4524 27.427C88.516 27.6709 88.5732 27.9374 88.6241 28.2295C88.6751 28.5215 88.7227 28.8041 88.7641 29.0737C88.8055 29.3433 88.8405 29.5745 88.8723 29.7671C88.8849 29.8442 88.9073 29.8891 88.9359 29.902C88.9644 29.9148 89.0058 29.9212 89.063 29.9212L90.7327 22.6117L90.7328 22.6118ZM96.3717 28.3804V26.3099H99.9686V26.0884C99.9686 25.7931 99.9274 25.5202 99.8445 25.273C99.7618 25.0259 99.6283 24.8267 99.4501 24.676C99.2657 24.525 99.024 24.4512 98.7186 24.4512C98.2543 24.4512 97.9299 24.6439 97.7422 25.0291C97.5545 25.4143 97.4591 26.0082 97.4591 26.8108V27.7161C97.4591 28.1527 97.4973 28.5603 97.5736 28.9391C97.65 29.3179 97.8122 29.6229 98.0602 29.854C98.3083 30.0852 98.6867 30.2008 99.1956 30.2008C99.6282 30.2008 100.051 30.143 100.471 30.0307C100.888 29.9184 101.285 29.7835 101.667 29.623C101.889 29.8413 102.068 30.1174 102.201 30.4512C102.334 30.785 102.424 31.1029 102.468 31.4046C101.985 31.7577 101.409 32.0306 100.738 32.22C100.064 32.4062 99.3896 32.5026 98.7089 32.5026C97.8693 32.5026 97.176 32.3613 96.6291 32.082C96.0821 31.806 95.6495 31.4239 95.3315 30.9457C95.0134 30.4674 94.7908 29.9282 94.6605 29.3279C94.5301 28.7276 94.4633 28.1112 94.4633 27.4756C94.4633 26.5061 94.6096 25.6298 94.8991 24.8496C95.1853 24.0696 95.6464 23.4532 96.2762 22.9975C96.9058 22.5416 97.7264 22.3137 98.7378 22.3137C99.5774 22.3137 100.293 22.4934 100.884 22.8529C101.476 23.2124 101.931 23.6971 102.246 24.3102C102.561 24.9234 102.716 25.62 102.716 26.3969C102.716 26.827 102.697 27.1866 102.656 27.469C102.615 27.7547 102.548 28.0597 102.459 28.3807H96.3717V28.3804ZM104.367 31.5489C104.38 31.2278 104.469 30.8683 104.631 30.4702C104.79 30.0721 104.981 29.7575 105.197 29.5263C105.617 29.7445 106.053 29.9308 106.501 30.0881C106.946 30.2455 107.395 30.3257 107.84 30.3257C108.209 30.3257 108.489 30.2615 108.676 30.133C108.861 30.0047 108.956 29.8441 108.956 29.6514C108.956 29.4653 108.89 29.3016 108.756 29.1539C108.622 29.0126 108.4 28.8843 108.088 28.7751L107.029 28.3899C106.584 28.2229 106.18 28.0111 105.817 27.7575C105.455 27.5039 105.169 27.1926 104.959 26.8234C104.749 26.4574 104.644 26.0144 104.644 25.5009C104.644 24.846 104.797 24.281 105.102 23.8059C105.407 23.3308 105.837 22.9615 106.39 22.7016C106.943 22.4447 107.592 22.3131 108.336 22.3131C108.941 22.3131 109.573 22.3966 110.235 22.5634C110.896 22.7304 111.434 22.9165 111.847 23.122C111.86 23.3531 111.831 23.6099 111.762 23.8923C111.692 24.1749 111.593 24.4349 111.463 24.6724C111.332 24.9099 111.186 25.0898 111.027 25.2116C110.632 25.0319 110.203 24.8649 109.739 24.7141C109.275 24.5632 108.817 24.4894 108.365 24.4894C108.111 24.4894 107.917 24.5504 107.783 24.6724C107.649 24.7944 107.583 24.9387 107.583 25.1057C107.583 25.2727 107.64 25.414 107.754 25.5294C107.869 25.645 108.053 25.7476 108.308 25.8376L109.491 26.2613C110.216 26.5181 110.82 26.8937 111.304 27.3881C111.787 27.8825 112.029 28.5405 112.029 29.3623C112.029 30.3189 111.666 31.083 110.938 31.6479C110.206 32.2162 109.198 32.5018 107.907 32.5018C107.226 32.5018 106.578 32.4054 105.967 32.2193C105.353 32.0299 104.819 31.8051 104.368 31.5483L104.367 31.5489ZM114.614 21.5139C114.614 20.8461 114.738 20.3776 114.983 20.1078C115.228 19.8382 115.641 19.7033 116.227 19.7033H117.391L117.524 19.8382V29.1123C117.524 29.4012 117.591 29.626 117.721 29.7801C117.852 29.9374 118.068 30.0176 118.373 30.0176H119.442C119.601 30.4863 119.68 30.9613 119.68 31.4429C119.68 31.552 119.677 31.6676 119.668 31.7897C119.658 31.9116 119.636 32.0208 119.604 32.1171C119.254 32.1621 118.85 32.2069 118.393 32.2487C117.935 32.2872 117.515 32.3097 117.133 32.3097C116.268 32.3097 115.632 32.0914 115.225 31.658C114.818 31.2247 114.614 30.5506 114.614 29.6325V21.514L114.614 21.5139ZM119.785 22.5829C119.874 22.923 119.919 23.273 119.919 23.6325C119.919 24.0243 119.874 24.3869 119.785 24.7207L116.226 24.6629L113.116 24.7207C113.033 24.3805 112.992 24.0177 112.992 23.6325C112.992 23.2858 113.033 22.936 113.116 22.5829L116.312 22.631L119.785 22.5829H119.785ZM121.14 31.0673C121.178 30.6307 121.312 30.2006 121.541 29.7799C121.77 29.3626 122.031 29.0223 122.323 28.7654C122.857 29.0865 123.465 29.3787 124.145 29.6355C124.826 29.8955 125.507 30.0271 126.187 30.0271C126.741 30.0271 127.138 29.8924 127.38 29.6226C127.621 29.353 127.742 29.064 127.742 28.7558C127.742 28.5503 127.676 28.3128 127.542 28.0463C127.409 27.7799 127.075 27.5359 126.54 27.3113L124.241 26.3482C123.452 26.0144 122.8 25.568 122.285 25.0096C121.77 24.4511 121.512 23.7127 121.512 22.7945C121.512 21.9921 121.719 21.2891 122.132 20.6856C122.546 20.082 123.105 19.6133 123.808 19.2731C124.511 18.9361 125.293 18.7691 126.158 18.7691C127.062 18.7691 127.911 18.8879 128.703 19.1255C129.495 19.363 130.137 19.6135 130.633 19.8767C130.608 20.3197 130.506 20.7466 130.325 21.1511C130.143 21.562 129.902 21.9023 129.603 22.1784C129.119 21.9472 128.553 21.7354 127.904 21.5363C127.256 21.3436 126.674 21.2443 126.158 21.2443C125.611 21.2443 125.223 21.3695 124.991 21.6198C124.759 21.8701 124.641 22.1238 124.641 22.3807C124.641 22.6246 124.724 22.843 124.886 23.0355C125.048 23.2282 125.338 23.4143 125.758 23.5941L128.105 24.5668C128.722 24.8236 129.246 25.1415 129.676 25.5234C130.105 25.9086 130.429 26.3388 130.652 26.8139C130.875 27.2923 130.986 27.8123 130.986 28.3709C130.986 29.1478 130.798 29.8508 130.429 30.4735C130.057 31.0995 129.498 31.5971 128.753 31.9566C128.009 32.3194 127.081 32.5024 125.967 32.5024C125.198 32.5024 124.377 32.3772 123.506 32.13C122.634 31.8861 121.846 31.5297 121.14 31.0674L121.14 31.0673ZM143.695 27.3595C143.695 28.4446 143.495 29.3723 143.094 30.1363C142.693 30.9036 142.108 31.4909 141.345 31.8954C140.578 32.2999 139.64 32.5021 138.533 32.5021C137.433 32.5021 136.498 32.2998 135.728 31.8954C134.959 31.4909 134.373 30.9034 133.973 30.1363C133.572 29.3723 133.372 28.4444 133.372 27.3595V19.058L133.505 18.9328H134.622C135.207 18.9328 135.655 19.0868 135.967 19.3887C136.279 19.6969 136.434 20.1912 136.434 20.8782V27.3884C136.434 28.2679 136.593 28.9324 136.912 29.3754C137.23 29.8216 137.77 30.0464 138.534 30.0464C139.303 30.0464 139.847 29.8216 140.165 29.3754C140.483 28.9324 140.642 28.2679 140.642 27.3884V19.058C140.897 19.0066 141.161 18.9745 141.431 18.9618C141.701 18.949 141.933 18.9424 142.131 18.9424C142.315 18.9424 142.56 18.949 142.872 18.9618C143.177 18.9745 143.454 19.0066 143.695 19.058V27.3595H143.695ZM145.88 31.0673C145.918 30.6307 146.052 30.2006 146.281 29.7799C146.51 29.3626 146.77 29.0223 147.063 28.7654C147.597 29.0865 148.205 29.3787 148.885 29.6355C149.566 29.8955 150.246 30.0271 150.927 30.0271C151.48 30.0271 151.878 29.8924 152.12 29.6226C152.361 29.353 152.482 29.064 152.482 28.7558C152.482 28.5503 152.415 28.3128 152.282 28.0463C152.148 27.7799 151.814 27.5359 151.28 27.3113L148.981 26.3482C148.192 26.0144 147.54 25.568 147.025 25.0096C146.509 24.4511 146.252 23.7127 146.252 22.7945C146.252 21.9921 146.459 21.2891 146.872 20.6856C147.285 20.082 147.845 19.6133 148.548 19.2731C149.251 18.9361 150.033 18.7691 150.898 18.7691C151.801 18.7691 152.65 18.8879 153.442 19.1255C154.234 19.363 154.877 19.6135 155.373 19.8767C155.347 20.3197 155.246 20.7466 155.064 21.1511C154.883 21.562 154.641 21.9023 154.342 22.1784C153.859 21.9472 153.293 21.7354 152.644 21.5363C151.995 21.3436 151.413 21.2443 150.898 21.2443C150.351 21.2443 149.963 21.3695 149.731 21.6198C149.499 21.8701 149.381 22.1238 149.381 22.3807C149.381 22.6246 149.464 22.843 149.626 23.0355C149.788 23.2282 150.078 23.4143 150.497 23.5941L152.844 24.5668C153.462 24.8236 153.986 25.1415 154.416 25.5234C154.845 25.9086 155.169 26.3388 155.392 26.8139C155.614 27.2923 155.726 27.8123 155.726 28.3709C155.726 29.1478 155.538 29.8508 155.169 30.4735C154.797 31.0995 154.237 31.5971 153.493 31.9566C152.749 32.3194 151.82 32.5024 150.707 32.5024C149.938 32.5024 149.117 32.3772 148.246 32.13C147.374 31.8861 146.586 31.5297 145.879 31.0674L145.88 31.0673Z" fill="#173F5F"/>
<path d="M75.3826 39.4372C75.3487 39.6473 75.2641 39.8465 75.1329 40.0308C74.9974 40.2194 74.8642 40.3587 74.7287 40.453C74.4281 40.2215 74.0791 40.0329 73.6811 39.8829C73.2833 39.7371 72.881 39.6621 72.4746 39.6621C72.0217 39.6621 71.6131 39.7758 71.2491 39.9987C70.8852 40.2258 70.5972 40.5901 70.3835 41.0958C70.1677 41.6016 70.0617 42.2788 70.0617 43.1275C70.0617 44.2676 70.2714 45.11 70.6904 45.6565C71.1094 46.2029 71.738 46.4773 72.5762 46.4773C73.0248 46.4773 73.4418 46.428 73.8249 46.3251C74.2079 46.2244 74.5 46.1321 74.7032 46.0464L75.3953 47.0624C75.1413 47.1567 74.8449 47.2467 74.5106 47.3281C74.1741 47.4117 73.8185 47.4802 73.446 47.5316C73.0735 47.583 72.7032 47.6088 72.3349 47.6088C71.6534 47.6088 71.0778 47.4887 70.6121 47.2488C70.1423 47.0087 69.7654 46.6787 69.4819 46.2608C69.1961 45.845 68.9866 45.3649 68.8597 44.8249C68.7307 44.2849 68.665 43.7147 68.665 43.1147C68.665 42.296 68.7708 41.593 68.9825 41.008C69.1942 40.425 69.482 39.9472 69.844 39.5742C70.2059 39.2056 70.6122 38.9313 71.0631 38.7556C71.5118 38.5799 71.9773 38.492 72.4557 38.492C72.9806 38.492 73.5055 38.5776 74.0303 38.7492C74.5552 38.9207 75.006 39.1499 75.3826 39.4372ZM74.1064 44.8187C74.1064 44.5186 74.1149 44.24 74.1318 43.9829C74.1487 43.7257 74.1806 43.4985 74.2272 43.3014L75.3954 43.7065V47.0627L74.1066 47.0884V44.8187H74.1064ZM74.4365 42.8191C74.7921 42.8191 75.0397 42.8963 75.1836 43.0528C75.3233 43.2114 75.3953 43.4279 75.3953 43.7065V43.9958H73.0461C72.8767 43.9958 72.7244 43.9615 72.5869 43.8887C72.4494 43.8202 72.3794 43.6593 72.3794 43.4108C72.3794 43.3121 72.39 43.2093 72.4112 43.1021C72.4323 42.995 72.4555 42.9006 72.481 42.8191H74.4365ZM79.0208 38.7429L79.1034 38.6593H80.3415V39.7846C80.3415 39.9646 80.3436 40.1125 80.3479 40.2239C80.3521 40.3396 80.3543 40.4832 80.3543 40.659V45.6675C80.3543 45.7833 80.3521 45.8883 80.3479 45.9847C80.3436 46.0812 80.3415 46.1927 80.3415 46.3169V47.4548H79.7955C79.5584 47.4548 79.37 47.3798 79.2303 47.2299C79.0906 47.0799 79.0208 46.8719 79.0208 46.6061V38.7429ZM83.5288 42.4399C83.55 42.5256 83.5669 42.622 83.5776 42.7313C83.5882 42.8405 83.5924 42.9328 83.5924 43.0057C83.5924 43.0829 83.5882 43.175 83.5776 43.2778C83.567 43.3849 83.55 43.4835 83.5288 43.5778H81.1415C81.0442 43.5778 80.9214 43.5778 80.7733 43.5735C80.6252 43.5735 80.4727 43.5714 80.3141 43.5671C80.1554 43.5671 80.0114 43.5628 79.8845 43.5585V42.4526C80.0114 42.4526 80.1554 42.4503 80.3141 42.4482C80.4729 42.446 80.6252 42.4439 80.7733 42.4417C80.9214 42.4396 81.0442 42.4396 81.1415 42.4396H83.5288V42.4399ZM84.2146 38.6593C84.2358 38.7623 84.2486 38.8607 84.2527 38.9507C84.2569 39.0451 84.259 39.1287 84.259 39.2059C84.259 39.2831 84.2527 39.3795 84.238 39.4909C84.2231 39.6067 84.1935 39.7138 84.1511 39.8167H81.1415C81.0442 39.8167 80.9214 39.8167 80.7733 39.8167C80.6252 39.8167 80.4727 39.8167 80.3141 39.8124C80.1554 39.8124 80.0114 39.8081 79.8845 39.8038V38.6593H84.2148H84.2146ZM84.4622 46.2912C84.4622 46.707 84.3987 47.0048 84.2759 47.1848C84.151 47.3648 83.914 47.4548 83.5669 47.4548H79.8842V46.3489C80.0874 46.3361 80.2884 46.3231 80.4874 46.3103C80.6864 46.2976 80.9172 46.2912 81.1795 46.2912H84.4622ZM87.1226 46.6448C87.1438 46.4477 87.2093 46.2504 87.3236 46.0555C87.4358 45.8626 87.5585 45.7083 87.694 45.5969C88.0623 45.8411 88.4707 46.0469 88.9194 46.2141C89.368 46.3813 89.8124 46.4648 90.2527 46.4648C90.7649 46.4648 91.1629 46.3513 91.4442 46.1241C91.7257 45.8969 91.8654 45.6076 91.8654 45.256C91.8654 44.956 91.7659 44.6882 91.5669 44.4545C91.368 44.223 91.0822 44.0259 90.7098 43.8673L89.1732 43.218C88.6399 42.9865 88.2145 42.693 87.9013 42.3371C87.5858 41.9814 87.4272 41.5292 87.4272 40.9805C87.4272 40.5132 87.55 40.0933 87.7933 39.716C88.0367 39.343 88.3731 39.0452 88.8049 38.8222C89.2367 38.6014 89.7362 38.4921 90.3034 38.4921C90.8326 38.4921 91.3299 38.5607 91.7955 38.6978C92.261 38.835 92.659 38.9872 92.9891 39.1544C92.9806 39.3515 92.932 39.5488 92.8431 39.7416C92.7542 39.9387 92.6399 40.0995 92.5002 40.2281C92.1701 40.0565 91.8081 39.9131 91.4123 39.7974C91.0145 39.6816 90.6525 39.6238 90.3222 39.6238C89.8524 39.6238 89.4842 39.7395 89.2154 39.971C88.9467 40.2025 88.8112 40.4875 88.8112 40.8261C88.8112 41.1089 88.9086 41.3404 89.1033 41.5204C89.298 41.7004 89.552 41.8569 89.8652 41.9897L91.3827 42.6262C91.7424 42.7804 92.0662 42.9713 92.354 43.1985C92.6418 43.4256 92.8684 43.6913 93.0335 43.9957C93.1985 44.2999 93.2811 44.6451 93.2811 45.0308C93.2811 45.5195 93.1668 45.9609 92.9382 46.351C92.7096 46.7431 92.3667 47.0518 91.9074 47.2746C91.4482 47.4975 90.8682 47.6089 90.1697 47.6089C89.645 47.6089 89.1137 47.5232 88.574 47.3517C88.0342 47.1802 87.5495 46.9445 87.122 46.6445L87.1226 46.6448ZM95.3577 39.8167C95.3365 39.7138 95.3217 39.6132 95.3133 39.5146C95.3048 39.4159 95.3007 39.3239 95.3007 39.238C95.3007 39.1523 95.3049 39.0602 95.3133 38.9616C95.3218 38.863 95.3365 38.7623 95.3577 38.6593H101.193C101.218 38.7365 101.237 38.8244 101.25 38.9186C101.263 39.0172 101.269 39.1093 101.269 39.1993C101.269 39.4222 101.208 39.5808 101.085 39.6751C100.962 39.7694 100.772 39.8166 100.513 39.8166H99.6815C99.5969 39.8166 99.4762 39.8145 99.3196 39.8102C99.163 39.8059 99.0402 39.8036 98.9513 39.8036H97.599C97.5144 39.8036 97.3936 39.8059 97.2349 39.8102C97.0741 39.8145 96.9535 39.8166 96.8687 39.8166H95.3575L95.3577 39.8167ZM97.5991 40.7554C97.5991 40.5797 97.5991 40.4232 97.5991 40.2818C97.5991 40.1446 97.5991 39.9838 97.5991 39.8038V39.238H98.9452V39.8038C98.9452 39.9838 98.9452 40.1446 98.9494 40.2818C98.9494 40.4232 98.9516 40.5796 98.9516 40.7554V47.442C98.8458 47.4591 98.7315 47.4721 98.613 47.4805C98.4902 47.4892 98.3801 47.4933 98.2786 47.4933C98.1728 47.4933 98.0606 47.489 97.94 47.4805C97.8194 47.4719 97.7051 47.4591 97.5993 47.442V40.7554H97.5991ZM105.39 38.6595C105.496 38.6424 105.625 38.6294 105.781 38.6209C105.934 38.6123 106.067 38.6081 106.177 38.6081C106.283 38.6081 106.412 38.6125 106.564 38.6209C106.717 38.6296 106.84 38.6446 106.933 38.666L109.784 47.3587C109.686 47.4187 109.566 47.4637 109.426 47.4915C109.282 47.5195 109.14 47.5323 108.996 47.5323C108.78 47.5323 108.615 47.4829 108.499 47.3844C108.383 47.2858 108.279 47.093 108.19 46.8057L106.793 42.3373C106.675 41.9643 106.556 41.5678 106.438 41.1477C106.319 40.7278 106.213 40.3484 106.12 40.0098H106.057C106.014 40.2028 105.961 40.4127 105.902 40.6398C105.839 40.867 105.779 41.0878 105.72 41.3042C105.661 41.5207 105.608 41.7093 105.561 41.8679L103.809 47.4551C103.724 47.4722 103.633 47.4852 103.534 47.4936C103.434 47.5023 103.331 47.5064 103.225 47.5064C103.106 47.5064 102.99 47.4978 102.874 47.4807C102.755 47.4636 102.654 47.4422 102.565 47.4164L102.527 47.3458L105.39 38.6595H105.39ZM105.218 45.3203C105.18 45.3203 105.102 45.3203 104.981 45.316C104.861 45.316 104.74 45.3139 104.619 45.3096C104.499 45.3096 104.416 45.3074 104.374 45.3074H103.745L104.164 44.195H104.717C104.759 44.195 104.833 44.193 104.939 44.1907C105.045 44.1886 105.153 44.1864 105.261 44.1843C105.368 44.1821 105.44 44.1821 105.479 44.1821H106.742C106.784 44.1821 106.859 44.1821 106.964 44.1843C107.07 44.1864 107.18 44.1886 107.292 44.1907C107.405 44.193 107.479 44.195 107.517 44.195H108.088L108.45 45.3074H107.822C107.779 45.3074 107.697 45.3096 107.574 45.3096C107.451 45.3139 107.331 45.316 107.21 45.316C107.089 45.3203 107.007 45.3203 106.965 45.3203H105.218H105.218ZM105.606 37.3735C105.534 37.335 105.464 37.305 105.396 37.2856C105.328 37.2664 105.258 37.2578 105.186 37.2578C105.098 37.2578 105.009 37.2856 104.92 37.3435C104.831 37.4014 104.75 37.4784 104.679 37.5727L104.533 37.7657C104.406 37.7571 104.276 37.7142 104.145 37.6392C104.014 37.5641 103.925 37.4699 103.878 37.3542L103.967 37.1485C104.103 36.8398 104.281 36.5977 104.505 36.4241C104.727 36.2505 104.985 36.1648 105.282 36.1648C105.426 36.1648 105.561 36.1862 105.688 36.2291C105.815 36.2719 105.929 36.3168 106.031 36.364L106.71 36.6919C106.782 36.7304 106.858 36.7605 106.939 36.784C107.019 36.8076 107.091 36.8204 107.155 36.8204C107.244 36.8204 107.332 36.7925 107.419 36.739C107.506 36.6855 107.586 36.6083 107.663 36.5053L107.809 36.3189C107.936 36.3232 108.067 36.3618 108.2 36.4368C108.333 36.5119 108.42 36.6083 108.463 36.7239L108.374 36.9296C108.243 37.2383 108.065 37.4783 107.84 37.6519C107.616 37.8255 107.358 37.9133 107.066 37.9133C106.918 37.9133 106.78 37.8918 106.653 37.8512C106.526 37.8105 106.412 37.7676 106.31 37.7206L105.605 37.3734L105.606 37.3735ZM113.593 43.0443C113.593 43.4344 113.623 43.8331 113.682 44.2358C113.741 44.6409 113.847 45.0159 113.997 45.3611C114.148 45.7061 114.361 45.9847 114.641 46.1968C114.92 46.4112 115.282 46.5161 115.726 46.5161C116.171 46.5161 116.533 46.4111 116.81 46.1968C117.087 45.9846 117.301 45.7061 117.451 45.3611C117.602 45.0159 117.705 44.6409 117.762 44.2358C117.82 43.8329 117.847 43.4344 117.847 43.0443C117.847 42.6543 117.82 42.2578 117.762 41.8548C117.705 41.452 117.602 41.0769 117.451 40.7319C117.301 40.389 117.087 40.1104 116.81 39.9003C116.533 39.6903 116.171 39.5852 115.726 39.5852C115.282 39.5852 114.92 39.6903 114.641 39.9003C114.361 40.1104 114.148 40.389 113.997 40.7319C113.847 41.0769 113.741 41.452 113.682 41.8548C113.623 42.2577 113.593 42.6543 113.593 43.0443ZM112.177 43.0443C112.177 42.1785 112.306 41.4027 112.562 40.7169C112.818 40.0311 113.208 39.4888 113.733 39.0903C114.258 38.6916 114.922 38.4923 115.726 38.4923C116.535 38.4923 117.202 38.6937 117.727 39.0924C118.251 39.4952 118.641 40.0376 118.895 40.7234C119.149 41.4091 119.276 42.1828 119.276 43.0445C119.276 43.9146 119.147 44.6925 118.888 45.3804C118.63 46.0685 118.239 46.6128 117.718 47.0115C117.195 47.4102 116.531 47.6094 115.726 47.6094C114.918 47.6094 114.251 47.4079 113.726 47.0049C113.201 46.6021 112.812 46.0555 112.558 45.3676C112.304 44.6797 112.177 43.906 112.177 43.0445V43.0443Z" fill="#4C9EE0"/>
<path d="M27.024 6.33299C33.899 5.54714 41.1783 5.8017 47.5521 8.74924C52.7139 11.1207 56.6339 15.819 58.2721 21.2353C60.4641 28.365 60.5387 36.1151 58.6763 43.3343C57.2028 48.9679 53.5443 54.1818 48.1804 56.7032C39.7269 60.8176 29.6049 60.8997 20.7694 57.9526C14.8071 55.9773 9.9518 51.1743 7.99183 45.1971C5.12645 36.4292 5.35844 26.524 9.1292 18.0706C12.2262 11.0682 19.7374 7.26828 27.0235 6.33299H27.024Z" fill="url(#paint0_linear_615_37)"/>
<path d="M58.4889 44.0084C56.9073 49.3809 53.3304 54.2832 48.1804 56.7035C39.7269 60.8179 29.6049 60.9 20.7698 57.9529C14.8075 55.9776 9.9522 51.1747 7.99222 45.1975C7.88484 44.8682 7.78237 44.5377 7.68359 44.2055C12.5938 40.654 18.6545 38.5416 24.6098 37.7775C34.372 36.6619 44.7076 37.0233 53.7575 41.2083C55.4326 41.9781 57.0155 42.9208 58.4889 44.0084Z" fill="url(#paint1_linear_615_37)"/>
<path fill-rule="evenodd" clip-rule="evenodd" d="M33.0232 46.6678C25.4743 46.6678 19.355 40.5378 19.355 32.9758H22.72C22.72 38.6758 27.333 43.2969 33.0232 43.2969V46.6678Z" fill="#99D1FF"/>
<path fill-rule="evenodd" clip-rule="evenodd" d="M22.72 32.9758H19.355V32.9717C19.357 25.4117 25.4755 19.2838 33.0232 19.2838V22.6546C27.3408 22.6546 22.7335 27.2626 22.7204 32.9515L22.72 32.9758Z" fill="#D9F0FF"/>
<path fill-rule="evenodd" clip-rule="evenodd" d="M33.0232 19.2834C33.0515 19.2834 33.0798 19.2842 33.108 19.2846C40.6176 19.3306 46.6914 25.4421 46.6914 32.9754C46.6914 40.537 40.5729 46.6665 33.0248 46.6673H33.0232V43.2965H33.0351C38.7199 43.2899 43.3264 38.6717 43.3264 32.9754C43.3264 27.2999 38.7539 22.6957 33.0978 22.6551C33.0728 22.6551 33.0482 22.6543 33.0232 22.6543V19.2834Z" fill="white"/>
<path fill-rule="evenodd" clip-rule="evenodd" d="M32.019 28.5267H34.0278C34.3958 28.5267 34.6971 28.8285 34.6971 29.1972V31.2985H36.7952C37.1632 31.2985 37.4645 31.6003 37.4645 31.969V33.9813C37.4645 34.35 37.1632 34.6517 36.7952 34.6517H34.6971V36.7535C34.6971 37.1222 34.3958 37.424 34.0278 37.424H32.019C31.6509 37.424 31.3497 37.1222 31.3497 36.7535V34.6517H29.2516C28.8835 34.6517 28.5823 34.35 28.5823 33.9813V31.969C28.5823 31.6003 28.8835 31.2985 29.2516 31.2985H31.3497V29.1972C31.3497 28.8285 31.6509 28.5267 32.019 28.5267Z" fill="#FEFEFE"/>
<path d="M8.71447 0.158637C11.57 -0.167773 14.5936 -0.0622547 17.2413 1.16209C19.3849 2.14707 21.0133 4.09896 21.6937 6.34852C22.6044 9.31002 22.6356 12.5294 21.8617 15.5282C21.2494 17.8681 19.73 20.0339 17.502 21.0813C13.9903 22.7905 9.78586 22.8246 6.11592 21.6003C3.63951 20.7799 1.62256 18.7849 0.808565 16.3018C-0.381686 12.6599 -0.285367 8.54593 1.28073 5.03426C2.5673 2.12531 5.6872 0.546633 8.71406 0.158637H8.71447Z" fill="url(#paint2_linear_615_37)"/>
<path d="M7.68034 22.0384C8.08611 20.7245 8.56811 19.4341 9.12963 18.1761C11.5134 12.7864 16.5125 9.29402 22.0109 7.54495C22.5982 10.164 22.5327 12.9293 21.8617 15.5291C21.2494 17.8689 19.73 20.0347 17.502 21.0821C14.4804 22.5528 10.9457 22.7832 7.67993 22.0388L7.68034 22.0384Z" fill="#2771AD"/>
<path d="M9.31494 5.61317C10.5527 5.61317 11.7909 5.61317 13.0291 5.61317C13.0291 6.85723 13.0291 8.10046 13.0291 9.34492C11.7909 9.34492 10.5527 9.34492 9.31494 9.34492C9.31494 8.10087 9.31494 6.85682 9.31494 5.61317Z" fill="white"/>
<path d="M7.1897 9.5498C10.3735 9.5535 13.5574 9.55022 16.7412 9.55104C16.7412 10.8649 16.7412 12.1787 16.7412 13.4926C15.3485 13.4926 13.9562 13.493 12.5635 13.4926C11.4084 12.2658 10.2522 11.0406 9.09803 9.81422C9.0677 9.78712 9.04229 9.74565 8.99844 9.74729C8.3947 9.68776 7.78974 9.63767 7.1897 9.5498Z" fill="white"/>
<path d="M5.60352 9.55226C6.71548 9.71567 7.83155 9.85075 8.95007 9.95052C10.185 11.2636 11.4228 12.5737 12.6581 13.8863C11.7798 14.0325 10.8863 14.0185 10.0014 13.9742C8.52955 13.888 7.06182 13.7163 5.60352 13.4901V9.55226Z" fill="white"/>
<path d="M8.95776 14.1072C10.1923 14.2045 11.4407 14.2908 12.6707 14.0933C12.7621 15.1895 12.8794 16.2837 13.0216 17.3734H9.3082C9.1668 16.2882 9.04916 15.199 8.95776 14.1072Z" fill="white"/>
<defs>
<linearGradient id="paint0_linear_615_37" x1="8.4644" y1="10.9023" x2="8.4644" y2="84.9686" gradientUnits="userSpaceOnUse">
<stop stop-color="#4C9EE0"/>
<stop offset="1" stop-color="#2771AD"/>
</linearGradient>
<linearGradient id="paint1_linear_615_37" x1="9.9614" y1="39.3209" x2="9.9614" y2="70.5165" gradientUnits="userSpaceOnUse">
<stop stop-color="#4C9EE0"/>
<stop offset="1" stop-color="#2771AD"/>
</linearGradient>
<linearGradient id="paint2_linear_615_37" x1="1.0048" y1="2.05661" x2="1.0048" y2="32.8224" gradientUnits="userSpaceOnUse">
<stop stop-color="#4C9EE0"/>
<stop offset="1" stop-color="#2771AD"/>
</linearGradient>
</defs>
</svg>
