<svg width="43" height="42" viewBox="0 0 38 40" fill="none" xmlns="http://www.w3.org/2000/svg">
<path fill-rule="evenodd" clip-rule="evenodd" d="M 33.451 28.22 C 33.451 28.934 32.973 29.511 32.383 29.511 L 18.503 29.511 C 17.912 29.511 17.435 28.934 17.435 28.22 C 17.435 27.505 17.912 26.928 18.503 26.928 L 32.383 26.928 C 32.973 26.928 33.451 27.505 33.451 28.22 Z M 18.503 23.053 L 29.18 23.053 C 29.77 23.053 30.248 22.475 30.248 21.761 C 30.248 21.047 29.77 20.469 29.18 20.469 L 18.503 20.469 C 17.912 20.469 17.435 21.047 17.435 21.761 C 17.435 22.475 17.912 23.053 18.503 23.053 Z M 18.503 16.594 L 25.977 16.594 C 26.567 16.594 27.044 16.017 27.044 15.302 C 27.044 14.588 26.567 14.011 25.977 14.011 L 18.503 14.011 C 17.912 14.011 17.435 14.588 17.435 15.302 C 17.435 16.017 17.912 16.594 18.503 16.594 Z M 18.503 10.135 L 22.773 10.135 C 23.364 10.135 23.841 9.558 23.841 8.844 C 23.841 8.129 23.364 7.552 22.773 7.552 L 18.503 7.552 C 17.912 7.552 17.435 8.129 17.435 8.844 C 17.435 9.558 17.912 10.135 18.503 10.135 Z M 17.564 32.473 C 17.147 31.968 16.472 31.968 16.054 32.473 L 14.232 34.678 L 14.232 8.844 C 14.232 8.129 13.754 7.552 13.164 7.552 C 12.574 7.552 12.096 8.129 12.096 8.844 L 12.096 34.678 L 10.274 32.473 C 9.856 31.968 9.181 31.968 8.764 32.473 C 8.346 32.978 8.346 33.795 8.764 34.3 L 11.654 37.796 C 12.071 38.3 12.617 38.552 13.164 38.552 C 13.711 38.552 14.257 38.3 14.674 37.796 L 17.564 34.3 C 17.982 33.795 17.982 32.978 17.564 32.473 Z" fill="#000"/>
</svg>
