<svg width="38" height="38" viewBox="0 0 38 38" fill="none" xmlns="http://www.w3.org/2000/svg">
<path id="Shape" fill-rule="evenodd" clip-rule="evenodd" d="M19.3892 37.1555H17.9438C15.553 37.1555 13.6079 35.2104 13.6079 32.8196V32.0916C13.6079 31.9002 13.4873 31.7266 13.3006 31.6495L13.274 31.6386C13.0867 31.5607 12.878 31.5979 12.7426 31.7334L12.228 32.2481C11.4091 33.067 10.3203 33.518 9.16198 33.518C8.00386 33.518 6.91496 33.067 6.09597 32.2481L5.07399 31.226C4.25508 30.4071 3.80407 29.3183 3.80407 28.16C3.80407 27.0019 4.25508 25.913 5.07399 25.0941L5.58874 24.5793C5.72409 24.4441 5.76131 24.2354 5.68348 24.048L5.67257 24.0214C5.59553 23.8347 5.42188 23.7141 5.23044 23.7141H4.50244C2.11161 23.7141 0.166504 21.769 0.166504 19.3782V17.9329C0.166504 15.542 2.11161 13.5969 4.50244 13.5969H5.23037C5.4218 13.5969 5.59546 13.4763 5.67249 13.2897L5.68341 13.2632C5.76124 13.0757 5.72409 12.8671 5.58859 12.7318L5.07392 12.217C4.255 11.3981 3.80399 10.3093 3.80399 9.15107C3.80399 7.99287 4.255 6.90397 5.07399 6.08506L6.09597 5.06308C6.91496 4.24409 8.00378 3.79308 9.16198 3.79308C10.3202 3.79308 11.4091 4.24409 12.228 5.06308L12.7427 5.57768C12.878 5.71303 13.0865 5.75025 13.2741 5.67249L13.3007 5.66158C13.4874 5.58454 13.608 5.41089 13.608 5.21946V4.49146C13.608 2.10062 15.5531 0.155518 17.9439 0.155518H19.3892C21.7801 0.155518 23.7252 2.10062 23.7252 4.49146V5.21939C23.7252 5.41082 23.8458 5.58447 24.0324 5.66151L24.059 5.67242C24.2463 5.75025 24.4551 5.71311 24.5905 5.57761L25.1051 5.06293C25.924 4.24402 27.0128 3.79301 28.1711 3.79301C29.3292 3.79301 30.4181 4.24402 31.2371 5.06293L32.2591 6.08506C33.078 6.9039 33.529 7.99272 33.529 9.151C33.529 10.3091 33.078 11.398 32.2591 12.2169L31.7444 12.7317C31.609 12.867 31.5718 13.0757 31.6496 13.2631L31.6605 13.2896C31.7375 13.4762 31.9112 13.5969 32.1026 13.5969H32.8306C35.2214 13.5969 37.1665 15.542 37.1665 17.9328V19.3781C37.1665 21.3576 35.8288 23.0844 33.9135 23.5774C33.1402 23.7763 32.3525 23.3109 32.1535 22.5379C31.9546 21.7649 32.42 20.9769 33.193 20.778C33.8306 20.614 34.2759 20.0383 34.2759 19.3782V17.9329C34.2759 17.1359 33.6275 16.4875 32.8306 16.4875H32.1026C30.7366 16.4875 29.5143 15.6655 28.9888 14.3931L28.9779 14.3668C28.4517 13.0999 28.7344 11.6537 29.7003 10.6877L30.215 10.1731C30.488 9.9001 30.6383 9.53711 30.6383 9.15107C30.6383 8.76496 30.488 8.40211 30.2151 8.12909L29.193 7.10696C28.9201 6.83402 28.5571 6.6837 28.171 6.6837C27.7849 6.6837 27.4221 6.83402 27.149 7.10696L26.6344 7.62171C25.6681 8.58769 24.2221 8.87017 22.95 8.34191L22.9289 8.33324C21.6566 7.8078 20.8345 6.5855 20.8345 5.21939V4.49146C20.8345 3.69451 20.1861 3.04614 19.3892 3.04614H17.9438C17.1469 3.04614 16.4985 3.69451 16.4985 4.49146V5.21939C16.4985 6.58542 15.6764 7.80772 14.4041 8.33324L14.383 8.34191C13.1108 8.87039 11.6648 8.58769 10.6987 7.62171L10.184 7.10704C9.91102 6.83402 9.5481 6.6837 9.16198 6.6837C8.77594 6.6837 8.41302 6.83402 8.13993 7.10704L7.11802 8.12902C6.845 8.40204 6.69469 8.76496 6.69469 9.15107C6.69469 9.53711 6.845 9.90003 7.11802 10.1731L7.6327 10.6877C8.5986 11.6537 8.8813 13.0999 8.3529 14.372L8.34423 14.3931C7.81878 15.6655 6.59648 16.4875 5.23037 16.4875H4.50244C3.7055 16.4875 3.05713 17.1359 3.05713 17.9329V19.3782C3.05713 20.1751 3.7055 20.8235 4.50244 20.8235H5.23037C6.59641 20.8235 7.81871 21.6456 8.34423 22.9179L8.3529 22.939C8.88138 24.2112 8.5986 25.6573 7.6327 26.6233L7.11795 27.1381C6.845 27.4109 6.69469 27.7739 6.69469 28.16C6.69469 28.5461 6.845 28.9089 7.11795 29.1819L8.14 30.2041C8.41295 30.477 8.77594 30.6273 9.16198 30.6273C9.5481 30.6273 9.91094 30.477 10.184 30.2041L10.6986 29.6893C11.6649 28.7233 13.1109 28.4409 14.383 28.9691L14.4041 28.9778C15.6764 29.5032 16.4985 30.7255 16.4985 32.0916V32.8196C16.4985 33.6165 17.1469 34.2649 17.9438 34.2649H19.3892C20.0242 34.2649 20.5786 33.8585 20.7686 33.2537C21.0078 32.4921 21.8191 32.0689 22.5806 32.3079C23.3421 32.5471 23.7655 33.3583 23.5264 34.1199C22.956 35.9356 21.2934 37.1555 19.3892 37.1555ZM35.9287 35.8448C36.7273 35.0462 37.1672 33.9842 37.1672 32.8548C37.1672 31.7253 36.7273 30.6635 35.9287 29.8648L35.9266 29.8627L26.5547 20.5299C26.9877 19.5875 27.2653 18.4968 27.2668 17.6195C27.2699 15.7491 26.5484 14.0374 25.1803 12.6693C23.5053 10.9943 20.9591 9.9955 18.3657 9.9955H18.3491C17.5101 9.99694 16.7122 10.1352 15.8379 10.4306C15.3669 10.5897 15.0107 10.9798 14.895 11.4633C14.7792 11.9468 14.9201 12.4559 15.2679 12.8111L18.7498 16.3664L18.3145 18.2419L16.4706 18.6601L12.9353 15.1172C12.5822 14.7634 12.0717 14.617 11.5848 14.7303C11.0981 14.8434 10.7044 15.2 10.5436 15.6732C10.2325 16.5891 10.0807 17.437 10.0793 18.2654C10.0759 20.4185 10.7515 22.5728 11.9332 24.1759C13.3628 26.1154 15.4071 27.1829 17.6914 27.1829H17.7034C18.5007 27.1815 19.6169 26.9568 20.6127 26.5237L29.9487 35.8448C30.7474 36.6434 31.8093 37.0833 32.9388 37.0833C34.0682 37.0833 35.1301 36.6434 35.9287 35.8448ZM17.6979 24.2922C18.3191 24.2912 19.4285 23.9913 20.0269 23.5626C20.2801 23.3813 20.5749 23.2923 20.8681 23.2923C21.2403 23.2923 21.61 23.4355 21.8898 23.7148L31.9911 33.7998C32.2446 34.0533 32.5807 34.1925 32.938 34.1925C33.2952 34.1925 33.6313 34.0533 33.8839 33.8006C34.1366 33.548 34.2758 33.212 34.2758 32.8546C34.2758 32.4975 34.1368 32.1617 33.8843 31.909L23.7351 21.802C23.2312 21.3003 23.1671 20.5066 23.584 19.9306C24.0358 19.3063 24.3745 18.193 24.3754 17.6146C24.3772 16.5139 23.96 15.5376 23.1356 14.7132C22.2214 13.799 20.9 13.1795 19.4661 12.9671L21.3687 14.9099C21.7141 15.2626 21.8556 15.7671 21.744 16.248L20.9247 19.7777C20.7994 20.3173 20.3767 20.7379 19.8364 20.8604L16.3304 21.6557C15.846 21.7656 15.3386 21.6188 14.9876 21.2671L13.0388 19.3141C13.1978 20.4886 13.6232 21.5978 14.2592 22.4607C14.8763 23.2978 15.9718 24.293 17.6979 24.2922Z" fill="#4C9EE0"/>
</svg>
