<svg width="75" height="160" viewBox="0 0 75 160" fill="none" xmlns="http://www.w3.org/2000/svg">
<path fill-rule="evenodd" clip-rule="evenodd" d="M5.44242 79.3954V26.8923C5.44242 22.336 7.17545 17.7644 9.64324 14.4455C13.8504 8.78576 20.1668 5.44242 28.8128 5.44242C35.2636 5.44242 49.5912 4.73051 54.8423 6.94488C62.6542 10.2388 68.8304 17.2602 68.8304 26.5719V80.6757C68.8304 91.1467 58.624 101.165 48.9812 101.165H24.9706C22.352 101.165 18.9465 99.7646 17.0695 98.8216C10.437 95.4915 5.44189 88.0472 5.44189 79.3954H5.44242ZM0 25.6119V81.3165C0 89.6926 4.96958 96.6513 9.9976 100.772C14.5932 104.538 20.5212 106.928 26.8917 106.928H47.381C51.7179 106.928 55.8284 105.759 58.8035 104.264C69.3159 98.9841 74.5931 89.8754 74.5931 77.7946V29.1327C74.5931 16.9334 68.545 7.00119 59.0431 2.74405C55.6483 1.223 52.4946 0 47.7014 0H26.2521C12.646 0 0.000531279 12.5679 0.000531279 25.6114L0 25.6119Z" fill="#168CE0"/>
<path fill-rule="evenodd" clip-rule="evenodd" d="M34.2551 150.467L29.5479 146.531C27.4887 144.799 23.2135 139.902 20.8095 139.902C18.2418 139.902 16.9141 143.22 19.9812 145.533C21.0873 146.367 21.4087 146.87 22.3629 147.633L31.9366 155.988C32.9428 156.988 35.8154 159.751 37.1372 159.751C38.4591 159.751 41.3317 156.988 42.3379 155.988C43.256 155.075 43.8244 154.823 44.742 153.91L51.9408 147.663C52.9029 146.807 53.2865 146.429 54.3337 145.574C56.8785 143.496 56.8434 139.902 52.8243 139.902C51.7224 139.902 40.8063 149.94 40.0184 150.467L40.0189 123.575C40.0263 120.461 40.1969 117.492 37.1372 117.492C34.0776 117.492 34.2482 120.461 34.2556 123.575L34.2561 150.467H34.2551Z" fill="#168CE0"/>
<path fill-rule="evenodd" clip-rule="evenodd" d="M34.2554 29.4533V41.9389C34.2554 46.1041 40.0176 46.1041 40.0176 41.9389V28.8131C40.0176 25.3162 34.2554 24.3897 34.2554 29.4533V29.4533Z" fill="#168CE0"/>
</svg>
