<svg width="38" height="38" viewBox="0 0 38 38" fill="none" xmlns="http://www.w3.org/2000/svg">
<path fill-rule="evenodd" clip-rule="evenodd" d="M37.2212 6.31191L32.0653 20.4524C31.792 21.2022 30.9621 21.5886 30.2121 21.3151C29.4623 21.0415 29.0759 20.2119 29.3494 19.4619L34.5042 5.32448C34.73 4.70119 34.5835 4.04375 34.111 3.5681C33.6209 3.07466 32.9341 2.91941 32.2736 3.1537L11.6202 10.4767C11.0469 10.68 10.6432 11.1316 10.5131 11.7154C10.3846 12.291 10.5534 12.8612 10.9766 13.2796L24.2276 26.3892C24.6606 26.8174 25.2526 26.9856 25.8525 26.8507C26.443 26.7175 26.8983 26.3197 27.101 25.7597C27.3731 25.0091 28.2025 24.6215 28.9525 24.893C29.7031 25.1649 30.091 25.9937 29.8191 26.7443C29.2817 28.2277 28.0362 29.3218 26.4876 29.6707C26.1432 29.7484 25.7963 29.7865 25.4527 29.7865C24.2434 29.7865 23.0753 29.3156 22.1946 28.4442L16.5867 22.8962L12.3824 27.0556C12.3643 27.0735 12.3453 27.0899 12.3262 27.1063L12.3101 27.1203L13.129 27.94C13.6177 28.4292 13.6916 29.1962 13.3049 29.7695C13.0559 30.139 12.8021 30.5181 12.5486 30.897C10.8716 33.4039 9.79381 34.9847 9.03052 35.7077C8.05635 36.6728 6.78127 37.1555 5.5059 37.1555C4.22348 37.1555 2.94134 36.6672 1.96492 35.691C0.0154554 33.7416 0.0123504 30.5715 1.9556 28.6184C2.61163 27.9426 4.35192 26.7437 6.92664 24.9958C7.25438 24.7736 7.57392 24.5566 7.8771 24.3496C8.45127 23.9578 9.22275 24.0304 9.71421 24.5221L10.2743 25.0827C10.2983 25.0548 10.3225 25.0271 10.3494 25.0006L14.5314 20.8631L8.94357 15.3349C7.815 14.2184 7.34697 12.63 7.69164 11.0859C8.03828 9.53335 9.14569 8.28706 10.6542 7.75241L31.3076 0.429085C33.0228 -0.178957 34.883 0.243059 36.1621 1.53113C37.4236 2.80113 37.8295 4.63316 37.2212 6.31191ZM26.5326 10.9202C27.0932 11.4888 27.0867 12.4039 26.5182 12.9645L21.3871 18.0234C21.1054 18.3009 20.7387 18.4395 20.3723 18.4395C19.9988 18.4395 19.6259 18.2958 19.3431 18.009C18.7825 17.4405 18.789 16.5253 19.3575 15.965L24.4886 10.9058C25.0571 10.3455 25.9723 10.352 26.5326 10.9202ZM8.51402 27.4117L10.2436 29.1426C10.227 29.1673 10.2105 29.1921 10.1939 29.2169C10.1777 29.2411 10.1615 29.2654 10.1454 29.2897C9.01734 30.9758 7.61353 33.074 7.03683 33.6132C7.02525 33.6242 7.01368 33.6355 7.00239 33.6468C6.17699 34.4722 4.83387 34.4722 4.00847 33.6468C3.18307 32.8214 3.18307 31.4783 4.00847 30.6529C4.01525 30.6464 4.02174 30.6396 4.02823 30.6325C4.51094 30.1306 6.90726 28.5027 8.51402 27.4117Z" fill="#000"/>
</svg>
