<svg width="24" height="24" viewBox="0 0 24 24" fill="none" xmlns="http://www.w3.org/2000/svg">
<path fill-rule="evenodd" clip-rule="evenodd" d="M23.3004 5.67169C22.8362 4.55109 22.1662 3.54822 21.3091 2.69092C20.452 1.8338 19.4489 1.16382 18.3283 0.699646C17.2077 0.235291 16.0247 0 14.8125 0C14.2947 0 13.875 0.419678 13.875 0.9375V6.44293V6.44312V8.25C13.875 9.28381 14.7162 10.125 15.75 10.125H23.0625C23.5803 10.125 24 9.70532 24 9.1875C24 7.97534 23.7647 6.7923 23.3004 5.67169ZM17.5272 2.40234L15.75 4.17957V1.93652C16.3601 2.01672 16.9578 2.17438 17.5272 2.40234ZM19.2237 3.3576L15.75 6.8313V8.25H17.144L20.6508 4.78711C20.447 4.51575 20.2244 4.25793 19.9832 4.01678C19.7452 3.77875 19.4912 3.55884 19.2237 3.3576ZM19.8126 8.25L21.6019 6.48303C21.8275 7.04938 21.9836 7.64355 22.0635 8.25H19.8126ZM20.428 18.828C21.5381 17.0662 22.125 15.0293 22.125 12.9375C22.125 12.4197 21.7053 12 21.1875 12H12.9375C12.4206 12 12 11.5794 12 11.0625V2.8125C12 2.29468 11.5803 1.875 11.0625 1.875C8.10754 1.875 5.32947 3.02563 3.24005 5.11505C1.15063 7.20447 0 9.98254 0 12.9375C0 15.9003 1.14844 18.6806 3.23401 20.766C5.3194 22.8516 8.09967 24 11.0625 24C13.0906 24 15.0743 23.4461 16.7994 22.398C17.2418 22.1292 17.3826 21.5524 17.1138 21.11C16.8448 20.6675 16.2682 20.5269 15.8256 20.7957C14.3943 21.6652 12.7471 22.125 11.0625 22.125C5.99652 22.125 1.875 18.0035 1.875 12.9375C1.875 8.18774 5.49756 4.26837 10.125 3.79742V11.0625C10.125 12.6134 11.3866 13.875 12.9375 13.875H20.2024C20.0596 15.2796 19.5963 16.6307 18.8416 17.8282C18.5656 18.2664 18.6969 18.8452 19.1349 19.1213C19.5731 19.3973 20.1519 19.266 20.428 18.828Z" fill="#4C9EE0"/>
</svg>
