<svg width="30" height="37" viewBox="0 0 30 37" fill="none" xmlns="http://www.w3.org/2000/svg">
<path id="Combined Shape" fill-rule="evenodd" clip-rule="evenodd" d="M28.2205 25.4375C29.0187 25.4375 29.6658 24.7904 29.6658 23.9922V5.78125C29.6658 2.59347 27.0723 0 23.8846 0H6.11523C2.92745 0 0.333984 2.59347 0.333984 5.78125V31.2187C0.333984 34.4065 2.92745 37 6.11523 37H23.8845C27.0723 37 29.6657 34.4065 29.6658 31.2187C29.6658 30.4205 29.0187 29.7734 28.2205 29.7734C27.4222 29.7734 26.7752 30.4205 26.7752 31.2187C26.7752 32.8126 25.4784 34.1094 23.8846 34.1094H6.11523C4.52134 34.1094 3.22461 32.8126 3.22461 31.2187V5.78125C3.22461 4.18736 4.52134 2.89062 6.11523 2.89062H23.8846C25.4784 2.89062 26.7752 4.18736 26.7752 5.78125V23.9922C26.7752 24.7904 27.4222 25.4375 28.2205 25.4375ZM18.1836 18.2109H22.4473C23.2455 18.2109 23.8926 18.858 23.8926 19.6562C23.8926 20.4545 23.2455 21.1016 22.4473 21.1016H18.1836C17.3853 21.1016 16.7383 20.4545 16.7383 19.6562C16.7383 18.858 17.3853 18.2109 18.1836 18.2109ZM18.1836 26.9551H22.4473C23.2455 26.9551 23.8926 27.6021 23.8926 28.4004C23.8926 29.1986 23.2455 29.8457 22.4473 29.8457H18.1836C17.3853 29.8457 16.7383 29.1986 16.7383 28.4004C16.7383 27.6021 17.3853 26.9551 18.1836 26.9551ZM18.1836 9.32227H22.4473C23.2455 9.32227 23.8926 9.96933 23.8926 10.7676C23.8926 11.5658 23.2455 12.2129 22.4473 12.2129H18.1836C17.3853 12.2129 16.7383 11.5658 16.7383 10.7676C16.7383 9.96933 17.3853 9.32227 18.1836 9.32227Z" fill="#000"/>
</svg>
