<svg width="38" height="38" viewBox="0 0 38 37" fill="none" xmlns="http://www.w3.org/2000/svg">
<path fill-rule="evenodd" clip-rule="evenodd" d="M35.0575 16.3358C33.796 14.3985 32.0506 12.5644 29.8696 10.8841C27.4773 9.04099 25.1017 7.79643 23.7022 7.13954L25.6467 2.10661C25.7107 1.94083 25.7436 1.7645 25.7436 1.58673V1.44249C25.7436 0.968642 25.5108 0.525076 25.121 0.255743C24.7312 -0.0135908 24.234 -0.0742938 23.7908 0.0932899C20.5417 1.32216 17.3839 1.32238 14.1373 0.0933621C13.6941 -0.0742938 13.1968 -0.0137353 12.8068 0.255598C12.417 0.524932 12.1842 0.968642 12.1842 1.44249V1.58673C12.1842 1.7645 12.2171 1.94076 12.2811 2.10661L14.2266 7.14192C12.8334 7.79939 10.4706 9.04388 8.09143 10.8863C5.92122 12.5668 4.18446 14.4012 2.92935 16.3386C1.3174 18.8269 0.5 21.4833 0.5 24.2339C0.5 28.0069 1.64259 31.2026 3.80427 33.4756C5.91378 35.6938 8.85268 36.911 12.3031 36.9957C12.3147 36.996 12.3263 36.9961 12.338 36.9961L25.3461 37L25.3581 37L25.3773 36.9997C29.5789 36.91 33.0751 35.1804 35.2221 32.1294C35.6806 31.478 35.524 30.5781 34.8725 30.1196C34.2209 29.6611 33.3212 29.8175 32.8626 30.4692C31.2594 32.7474 28.5853 34.0418 25.331 34.115L12.3568 34.1111C6.82245 33.9677 3.38499 30.1845 3.38499 24.2339C3.38499 20.2345 5.54465 16.5252 9.80384 13.2093C12.6102 11.0245 15.4664 9.72895 16.2934 9.37637H20.936L21.0023 9.43411C26.1106 13.8781 28.7008 18.3965 28.7008 22.8636C28.7008 23.6603 29.3466 24.3061 30.1433 24.3061C30.9399 24.3061 31.5858 23.6603 31.5858 22.8636C31.5858 19.7246 30.5686 16.5883 28.5603 13.5266C31.67 16.0326 34.615 19.623 34.615 24.2339C34.615 25.0306 35.2608 25.6764 36.0575 25.6764C36.8542 25.6764 37.5 25.0306 37.5 24.2339C37.5 21.4821 36.6782 18.8247 35.0575 16.3358ZM20.8598 6.49125H17.0679L15.9516 3.60179C17.9569 3.98992 19.9703 3.98978 21.9762 3.60143L20.8598 6.49125ZM20.4043 30.3645C20.4043 31.1612 19.7585 31.807 18.9618 31.807C18.1652 31.807 17.5194 31.1612 17.5191 30.3646V29.5681C15.5664 29.5005 14.0557 27.9745 14.0557 26.0372C14.0557 25.2405 14.7016 24.5947 15.4982 24.5947C16.2949 24.5947 16.9407 25.2405 16.9407 26.0372C16.9407 26.4633 17.2996 26.6863 17.6541 26.6863H19.8023C20.4752 26.6863 20.9827 26.2134 20.9827 25.5863V25.2323C20.9827 24.5916 20.4642 24.0898 19.8023 24.0898H18.4805C16.2433 24.0898 14.4232 22.2456 14.4232 19.9787V19.4526C14.4232 18.3624 14.8486 17.3458 15.6211 16.5899C16.1514 16.071 16.8054 15.715 17.5194 15.5465V14.5693C17.5194 13.7726 18.1652 13.1268 18.9618 13.1268C19.7585 13.1268 20.4043 13.7726 20.4043 14.5693V15.4969C22.0863 15.806 23.3629 17.2485 23.3629 18.9773C23.3629 19.7739 22.7171 20.4198 21.9204 20.4198C21.1237 20.4198 20.4779 19.7739 20.4779 18.9773C20.4779 18.5657 20.0979 18.3198 19.7305 18.3198H18.4806C17.8122 18.3198 17.3083 18.8067 17.3083 19.4526V19.9786C17.3083 20.6433 17.8451 21.2048 18.4806 21.2048H19.8024C20.8853 21.2048 21.9025 21.6169 22.6664 22.3652C23.4412 23.124 23.8677 24.1422 23.8677 25.2322V25.5862C23.8677 27.6199 22.3886 29.2519 20.4043 29.5291V30.3645Z" fill="#4C9EE0"/>
</svg>
