<svg width="24" height="24" viewBox="0 0 24 24" fill="none" xmlns="http://www.w3.org/2000/svg">
<path fill-rule="evenodd" clip-rule="evenodd" d="M23.0625 16.4999C23.5803 16.4999 24 16.0802 24 15.5624V13.2187C24 12.7009 23.5803 12.2812 23.0625 12.2812H18.375V0.9375C18.375 0.419719 17.9553 0 17.4375 0H0.937641C0.419906 0 0.000140625 0.419719 0.000140625 0.9375L0 20.2497C0 22.3174 1.6822 23.9997 3.75 23.9998L20.2499 23.9999L20.2714 23.9997C21.265 23.9942 22.1983 23.6047 22.9016 22.9015C23.6099 22.1932 24 21.2514 24 20.2497C24 19.7319 23.5803 19.3122 23.0625 19.3122C22.5447 19.3122 22.125 19.7319 22.125 20.2497C22.125 20.7506 21.93 21.2214 21.5758 21.5756C21.2216 21.9297 20.7508 22.1247 20.25 22.1247H20.2499C19.2161 22.1246 18.375 21.2835 18.375 20.2497V14.1562H22.125V15.5625C22.125 16.0802 22.5448 16.4999 23.0625 16.4999ZM3.75 22.1248C2.71613 22.1247 1.875 21.2836 1.875 20.2497L1.87514 1.875H16.5V20.2497C16.5 20.9323 16.6834 21.573 17.0034 22.1249L3.75 22.1248ZM4.73447 3.75H13.6875C14.2053 3.75 14.625 4.16972 14.625 4.6875V8.39062C14.625 8.90841 14.2053 9.32812 13.6875 9.32812H4.73447C4.21669 9.32812 3.79697 8.90841 3.79697 8.39062V4.6875C3.79697 4.16972 4.21669 3.75 4.73447 3.75ZM5.67197 7.45312H12.75V5.625H5.67197V7.45312ZM4.73447 11.1093H7.59384C8.11162 11.1093 8.53134 11.529 8.53134 12.0468C8.53134 12.5646 8.11162 12.9843 7.59384 12.9843H4.73447C4.21669 12.9843 3.79697 12.5646 3.79697 12.0468C3.79697 11.529 4.21669 11.1093 4.73447 11.1093ZM4.73447 14.7656H7.59384C8.11162 14.7656 8.53134 15.1853 8.53134 15.7031C8.53134 16.2209 8.11162 16.6406 7.59384 16.6406H4.73447C4.21669 16.6406 3.79697 16.2209 3.79697 15.7031C3.79697 15.1853 4.21669 14.7656 4.73447 14.7656ZM7.59384 18.3749H4.73447C4.21669 18.3749 3.79697 18.7946 3.79697 19.3124C3.79697 19.8302 4.21669 20.2499 4.73447 20.2499H7.59384C8.11162 20.2499 8.53134 19.8302 8.53134 19.3124C8.53134 18.7946 8.11162 18.3749 7.59384 18.3749ZM10.8282 18.3749H13.6875C14.2053 18.3749 14.625 18.7946 14.625 19.3124C14.625 19.8302 14.2053 20.2499 13.6875 20.2499H10.8282C10.3104 20.2499 9.89067 19.8302 9.89067 19.3124C9.89067 18.7946 10.3104 18.3749 10.8282 18.3749ZM13.6875 11.1093H10.8282C10.3104 11.1093 9.89067 11.529 9.89067 12.0468C9.89067 12.5646 10.3104 12.9843 10.8282 12.9843H13.6875C14.2053 12.9843 14.625 12.5646 14.625 12.0468C14.625 11.529 14.2053 11.1093 13.6875 11.1093ZM10.8282 14.7656H13.6875C14.2053 14.7656 14.625 15.1853 14.625 15.7031C14.625 16.2209 14.2053 16.6406 13.6875 16.6406H10.8282C10.3104 16.6406 9.89067 16.2209 9.89067 15.7031C9.89067 15.1853 10.3104 14.7656 10.8282 14.7656Z" fill="#4C9EE0"/>
</svg>
