<svg width="37" height="37" viewBox="0 0 37 37" fill="none" xmlns="http://www.w3.org/2000/svg">
<path fill-rule="evenodd" clip-rule="evenodd" d="M26.2721 0.426934C25.6972 -0.144597 24.7675 -0.142016 24.1956 0.432956C23.6238 1.00793 23.6267 1.93763 24.2017 2.50916L31.5607 9.82694C31.838 10.104 31.9909 10.4727 31.9909 10.865C31.9909 11.2571 31.838 11.6258 31.5639 11.9003L24.2017 19.2206C23.6267 19.7924 23.6238 20.7222 24.1956 21.2971C24.4827 21.5856 24.8598 21.7301 25.2369 21.7301C25.6111 21.7301 25.9857 21.5879 26.2721 21.3032L33.6372 13.9796C34.4691 13.1477 34.9274 12.0417 34.9274 10.865C34.9274 9.68843 34.4691 8.58236 33.6344 7.74729L26.2721 0.426934ZM2.40578 26.1349C2.40578 27.3115 2.86404 28.4176 3.69882 29.2524L11.061 36.573C11.3475 36.8578 11.7218 37 12.0963 37C12.4734 37 12.8505 36.8555 13.1375 36.567C13.7094 35.992 13.7065 35.0623 13.1315 34.4905L5.77245 27.173C5.49514 26.8957 5.34229 26.5269 5.34229 26.1349C5.34229 25.7426 5.49514 25.3741 5.76929 25.0997L13.1315 17.779C13.7065 17.2075 13.7094 16.2778 13.1375 15.7028C12.5657 15.1278 11.636 15.1253 11.061 15.6968L3.69595 23.0203C2.86404 23.8522 2.40578 24.9583 2.40578 26.1349ZM11.1419 24.6667H35.1479C35.9589 24.6667 36.6162 25.324 36.6162 26.1349C36.6162 26.9459 35.9589 27.6032 35.1479 27.6032H11.1419C10.3309 27.6032 9.67364 26.9459 9.67364 26.1349C9.67364 25.324 10.3309 24.6667 11.1419 24.6667ZM26.1916 9.39669C27.0025 9.39669 27.6598 10.054 27.6598 10.8649C27.6598 11.6759 27.0025 12.3332 26.1916 12.3332H2.18554C1.37456 12.3332 0.717285 11.6759 0.717285 10.8649C0.717285 10.054 1.37456 9.39669 2.18554 9.39669H26.1916Z" fill="#000"/>
</svg>
