<svg width="38" height="38" viewBox="0 0 38 37" fill="none" xmlns="http://www.w3.org/2000/svg">
<path fill-rule="evenodd" clip-rule="evenodd" d="M7.48165 15.1758C7.48165 6.80786 14.2895 0 22.6574 0C31.0254 0 37.8332 6.80786 37.8332 15.1758C37.8332 17.8114 37.1467 20.408 35.8479 22.6849C35.4524 23.3782 34.5697 23.6197 33.8764 23.2242C33.1831 22.8287 32.9415 21.946 33.3371 21.2527C34.3874 19.4113 34.9426 17.3099 34.9426 15.1758C34.9426 8.40175 29.4315 2.89062 22.6574 2.89062C15.8834 2.89062 10.3723 8.40175 10.3723 15.1758C10.3723 21.9498 15.8834 27.4609 22.6574 27.4609C24.7656 27.4609 26.8446 26.9184 28.6696 25.892C29.3655 25.5006 30.2466 25.7477 30.6379 26.4433C31.0291 27.1391 30.7823 28.0203 30.0866 28.4115C27.8298 29.6807 25.2609 30.3516 22.6574 30.3516C19.0097 30.3516 15.6587 29.0576 13.0385 26.9049L3.29704 36.5801C3.01513 36.8602 2.64679 37 2.27853 37C1.90694 37 1.53557 36.8576 1.25308 36.5732C0.690563 36.0069 0.693743 35.0918 1.26009 34.5292L10.9884 24.8671C8.79978 22.2364 7.48165 18.8573 7.48165 15.1758ZM24.1732 22.7637C24.1732 23.5619 23.5261 24.209 22.7279 24.209C21.9296 24.209 21.2826 23.5619 21.2826 22.7637V21.9655C19.326 21.8979 17.8123 20.3688 17.8123 18.4277C17.8123 17.6295 18.4594 16.9824 19.2576 16.9824C20.0558 16.9824 20.7029 17.6295 20.7029 18.4277C20.7029 18.8548 21.0625 19.0781 21.4176 19.0781H23.57C24.2443 19.0781 24.7527 18.6043 24.7527 17.976V17.6213C24.7527 16.9794 24.2332 16.4766 23.57 16.4766H22.2456C20.004 16.4766 18.1803 14.6287 18.1803 12.3574V11.8303C18.1803 10.738 18.6066 9.71929 19.3805 8.96202C19.9119 8.44207 20.5671 8.08544 21.2825 7.91655V6.9375C21.2825 6.13925 21.9295 5.49219 22.7278 5.49219C23.526 5.49219 24.1731 6.13925 24.1731 6.9375V7.86691C25.8583 8.17657 27.1374 9.62195 27.1374 11.3541C27.1374 12.1523 26.4904 12.7994 25.6921 12.7994C24.8939 12.7994 24.2468 12.1523 24.2468 11.3541C24.2468 10.9417 23.8661 10.6953 23.498 10.6953H22.2456C21.576 10.6953 21.071 11.1832 21.071 11.8303V12.3574C21.071 13.0233 21.6088 13.5859 22.2456 13.5859H23.57C24.655 13.5859 25.6741 13.9989 26.4397 14.7486C27.2159 15.5089 27.6434 16.5291 27.6434 17.6213V17.976C27.6434 20.0136 26.1613 21.6489 24.1732 21.9266V22.7637Z" fill="#4C9EE0"/>
</svg>
