<svg width="24" height="21" viewBox="0 0 24 21" fill="none" xmlns="http://www.w3.org/2000/svg">
<path fill-rule="evenodd" clip-rule="evenodd" d="M22.125 8.4375V3.75C22.125 2.71619 21.2838 1.875 20.25 1.875H3.75C2.71619 1.875 1.875 2.71619 1.875 3.75V13.125C1.875 14.1588 2.71619 15 3.75 15H20.25C21.2838 15 22.125 14.1588 22.125 13.125C22.125 12.6072 22.5447 12.1875 23.0625 12.1875C23.5803 12.1875 24 12.6072 24 13.125C24 15.1928 22.3178 16.875 20.25 16.875H12.9375V18.7443H16.2188C16.7366 18.7443 17.1562 19.164 17.1562 19.6818C17.1562 20.1996 16.7366 20.6193 16.2188 20.6193H7.78125C7.26343 20.6193 6.84375 20.1996 6.84375 19.6818C6.84375 19.164 7.26343 18.7443 7.78125 18.7443H11.0625V16.875H3.75C1.68219 16.875 0 15.1928 0 13.125V3.75C0 1.68219 1.68219 0 3.75 0H20.25C22.3178 0 24 1.68219 24 3.75V8.4375C24 8.95532 23.5803 9.375 23.0625 9.375C22.5447 9.375 22.125 8.95532 22.125 8.4375ZM8.25806 8.67096L8.25714 8.65681C8.25612 8.64131 8.2551 8.6257 8.25439 8.60999C8.25165 8.55249 8.25 8.495 8.25 8.4375C8.25 8.37323 8.25165 8.30951 8.25494 8.24597L7.37842 7.64008C6.99371 7.37421 6.86389 6.86572 7.07391 6.44788L7.47382 5.6521C7.67761 5.2467 8.14233 5.04529 8.57758 5.17419L9.67108 5.49774C9.9115 5.30695 10.1737 5.14691 10.4528 5.02057L10.6029 3.94812C10.6677 3.48505 11.0638 3.14062 11.5312 3.14062H12.4219C12.8756 3.14062 13.2642 3.46545 13.3445 3.91205L13.5439 5.01965C13.554 5.02423 13.5639 5.02915 13.5738 5.03406C13.5817 5.03799 13.5896 5.04191 13.5976 5.04565C13.614 5.05339 13.6303 5.06139 13.6464 5.06932L13.6465 5.06936L13.6564 5.07422C13.6956 5.09363 13.7346 5.1134 13.773 5.13409C13.781 5.13844 13.789 5.14285 13.7969 5.14725C13.802 5.15008 13.8071 5.15291 13.8122 5.1557C13.8558 5.17987 13.8992 5.20441 13.9417 5.23022L13.9488 5.2348C14.0497 5.29633 14.1484 5.36188 14.2432 5.43274L15.2554 5.0462C15.6923 4.87958 16.1851 5.05994 16.4108 5.46936L16.8409 6.24939C17.0599 6.64673 16.9631 7.14386 16.6108 7.42987L15.7381 8.13831C15.7392 8.15125 15.7399 8.16425 15.7406 8.17725L15.7421 8.20331L15.7431 8.21847C15.7441 8.23374 15.7451 8.24901 15.7458 8.26428C15.7484 8.32196 15.7502 8.37964 15.7502 8.4375C15.7502 8.48438 15.7493 8.53143 15.7474 8.57831L16.6496 9.22852C17.0233 9.49768 17.146 9.99866 16.9391 10.4101L16.5602 11.1639C16.3564 11.5693 15.8917 11.7706 15.4565 11.6418L14.391 11.3265C14.1262 11.5464 13.834 11.7277 13.5203 11.8665L13.3478 12.945C13.275 13.3998 12.8826 13.7344 12.4221 13.7344H11.5783C11.1246 13.7344 10.736 13.4095 10.6556 12.963L10.4562 11.8555C10.1995 11.7394 9.95654 11.5946 9.73187 11.4236L8.70209 11.794C8.26868 11.9498 7.78619 11.7678 7.5639 11.3644L7.15649 10.6256C6.93732 10.2283 7.03418 9.73096 7.38647 9.44495L8.2619 8.73413C8.26068 8.72021 8.25995 8.70614 8.25922 8.69206L8.25806 8.67096ZM10.1283 8.54517C10.1263 8.50928 10.125 8.47339 10.125 8.4375C10.125 8.40289 10.1261 8.36829 10.1279 8.3335C10.1281 8.3291 10.1287 8.32489 10.129 8.3205C10.131 8.28937 10.1334 8.25824 10.1371 8.22711C10.1372 8.22574 10.1374 8.22437 10.1375 8.22299C10.1377 8.22162 10.1379 8.22025 10.138 8.21887C10.142 8.1861 10.1466 8.15332 10.1523 8.12054C10.1526 8.11871 10.153 8.11688 10.1532 8.11487C10.1589 8.08246 10.1655 8.05005 10.1728 8.01782C10.2513 7.67615 10.4231 7.36981 10.6602 7.12738C10.6666 7.12079 10.673 7.11401 10.6796 7.1076C10.6983 7.08893 10.7173 7.0708 10.7368 7.05304L10.7503 7.04114C10.7893 7.00616 10.8296 6.97284 10.8715 6.94116L10.8818 6.93329C10.905 6.91589 10.9285 6.89923 10.9523 6.88312C10.9986 6.85181 11.0464 6.82269 11.0955 6.79559L11.1125 6.78607C11.1359 6.77344 11.1597 6.76117 11.1839 6.74963C11.1888 6.74725 11.1937 6.745 11.1986 6.74277C11.2016 6.7414 11.2046 6.74004 11.2077 6.73865C11.2456 6.72089 11.2842 6.70441 11.3234 6.68921C11.3395 6.68298 11.3557 6.67676 11.3719 6.6709C11.3906 6.66431 11.4095 6.6579 11.4283 6.65186C11.4543 6.64343 11.4807 6.63574 11.5071 6.6286C11.6642 6.58575 11.8293 6.5625 11.9998 6.5625C12.1738 6.5625 12.342 6.58685 12.5019 6.63135C12.5283 6.63849 12.5544 6.64636 12.5804 6.65497C12.5955 6.65991 12.6105 6.66486 12.6253 6.67017C12.6482 6.67822 12.6709 6.68701 12.6936 6.69598C12.7141 6.70422 12.7346 6.71283 12.7548 6.7218C12.7778 6.73187 12.8005 6.74231 12.8231 6.7533C12.8394 6.76135 12.8553 6.76959 12.8714 6.77802C12.8893 6.78754 12.9073 6.79761 12.925 6.80768C12.9273 6.80897 12.9296 6.81026 12.9319 6.81155C12.9445 6.81869 12.9571 6.82587 12.9695 6.83331C12.9979 6.85052 13.0258 6.86847 13.0532 6.88733C13.0666 6.8963 13.0796 6.90582 13.0926 6.91534C13.1115 6.92889 13.1301 6.94281 13.1484 6.95709C13.1517 6.95966 13.155 6.96222 13.1583 6.96477C13.1668 6.97133 13.1753 6.97789 13.1836 6.98474C13.2111 7.00708 13.2378 7.03015 13.2642 7.05414C13.2697 7.0593 13.2751 7.06454 13.2806 7.06981C13.2833 7.07239 13.286 7.07498 13.2887 7.07758C13.3092 7.09717 13.3295 7.11713 13.3493 7.13782C13.5778 7.37494 13.7444 7.67175 13.8234 8.00262C13.8294 8.02808 13.8351 8.05353 13.8402 8.07935C13.8417 8.08699 13.843 8.09473 13.8444 8.10249C13.845 8.10606 13.8456 8.10964 13.8463 8.11322C13.8505 8.13776 13.8543 8.16266 13.8578 8.18738C13.8593 8.19873 13.8607 8.21008 13.862 8.22162C13.8651 8.24744 13.8673 8.27344 13.8693 8.29944C13.8701 8.30951 13.871 8.31958 13.8715 8.32983C13.8737 8.36572 13.8748 8.40161 13.8748 8.43768C13.8748 8.50232 13.8715 8.56732 13.8649 8.63177L13.8638 8.64001C13.8607 8.66895 13.8571 8.69788 13.8527 8.72662C13.8517 8.73234 13.8507 8.73796 13.8496 8.74356C13.8486 8.74872 13.8477 8.75385 13.8468 8.75903C13.8462 8.76272 13.8455 8.76641 13.8449 8.77011C13.8421 8.78643 13.8392 8.80282 13.8358 8.81909C13.7688 9.14172 13.6185 9.43396 13.4086 9.67291C13.3815 9.70386 13.3539 9.73389 13.325 9.76282C13.3216 9.7663 13.318 9.76963 13.3145 9.77296C13.3115 9.77576 13.3085 9.77857 13.3055 9.78149C13.283 9.80347 13.2598 9.82471 13.2363 9.8454C13.2239 9.85638 13.2114 9.86737 13.1986 9.87799C13.1726 9.89978 13.1459 9.92084 13.1188 9.94116C13.1041 9.95211 13.089 9.96264 13.074 9.97311L13.0679 9.97742C13.0529 9.98785 13.0377 9.99811 13.0223 10.0082C12.9946 10.0261 12.9664 10.0435 12.9379 10.06C12.9203 10.0703 12.9027 10.0805 12.8848 10.09C12.8661 10.1001 12.847 10.1098 12.828 10.1193C12.8073 10.1294 12.7863 10.1393 12.765 10.1486C12.7434 10.1585 12.7214 10.1677 12.6995 10.1766C12.6722 10.1876 12.6449 10.1981 12.6171 10.2078C12.6039 10.2123 12.5905 10.2169 12.5771 10.2213C12.5389 10.2336 12.5001 10.2451 12.4607 10.255C12.3133 10.2925 12.1589 10.3125 12 10.3125C11.8257 10.3125 11.6572 10.2881 11.497 10.2435C11.4708 10.2361 11.4448 10.2283 11.4188 10.2198C11.4034 10.2149 11.3882 10.2098 11.373 10.2043C11.3502 10.1962 11.3276 10.1874 11.3053 10.1785C11.2817 10.1691 11.2582 10.1592 11.235 10.1488C11.2154 10.14 11.1958 10.131 11.1764 10.1215C11.1586 10.1127 11.1411 10.1038 11.1237 10.0944C11.1077 10.086 11.092 10.0772 11.076 10.0682C11.051 10.0538 11.0261 10.0389 11.0015 10.0234C10.9828 10.0117 10.9644 9.99994 10.946 9.98749C10.9301 9.9765 10.9144 9.96515 10.8986 9.95361C10.8829 9.94226 10.8675 9.93054 10.8521 9.91864C10.8469 9.91453 10.8417 9.91047 10.8365 9.90642C10.8275 9.89945 10.8185 9.89249 10.8098 9.88531C10.7842 9.86407 10.7589 9.84229 10.7344 9.81958C10.7225 9.80859 10.7108 9.79724 10.699 9.78589C10.6822 9.76959 10.6655 9.75293 10.6492 9.7359C10.4211 9.4986 10.2548 9.20178 10.1761 8.87109C10.1702 8.84583 10.1646 8.82037 10.1596 8.79492C10.1581 8.78748 10.1568 8.78003 10.1555 8.77258C10.1549 8.76886 10.1542 8.76514 10.1536 8.76141C10.1492 8.73669 10.1453 8.71179 10.142 8.68689C10.1406 8.67572 10.1391 8.66455 10.1378 8.6532C10.1349 8.6272 10.1325 8.60101 10.1305 8.57501C10.1301 8.5699 10.1297 8.56479 10.1293 8.55965C10.1289 8.55485 10.1286 8.55003 10.1283 8.54517Z" fill="#4C9EE0"/>
</svg>
